<svg id="Dislike" xmlns="http://www.w3.org/2000/svg" width="50" height="50" viewBox="0 0 50 50">
  <defs>
    <style>
      .cls-1 {
        fill: #f86060;
        stroke: #fff;
        stroke-width: 5px;
      }

      .cls-2 {
        fill: #fff;
        fill-rule: evenodd;
      }
    </style>
  </defs>
  <circle class="cls-1" cx="25" cy="25" r="22.5"/>
  <path id="Disllike" class="cls-2" d="M670,904a4.407,4.407,0,0,1,3.7,2.1,28.948,28.948,0,0,0,2.428,3.57,7.794,7.794,0,0,1,1.965,3.225c0.386,1.535.463,2.956,0.81,3.34s1.233,1.535,2.427,0a4.8,4.8,0,0,0,.578-4.722c-0.5-1.5-1.04-3.033-1.156-3.571s-0.263-.835,1.124-0.835h5S690,907.276,690,904.627a2.3,2.3,0,0,0-1.619-2.217S690,901.6,690,900.222a2.591,2.591,0,0,0-1.5-2.073s1.5-.115,1.5-2.189A1.91,1.91,0,0,0,687.919,894h-1.04a1.553,1.553,0,0,0,1.04-1.613,1.315,1.315,0,0,0-1.272-1.382H679.6s-1.965,0-3.468.115S673.683,892,670,892v12Zm-5-12h4v12h-4V892Z" transform="translate(-652.5 -876.5)"/>
</svg>
