<svg xmlns="http://www.w3.org/2000/svg" width="32" height="32" viewBox="0 0 32 32">
  <metadata><?xpacket begin="﻿" id="W5M0MpCehiHzreSzNTczkc9d"?>
<x:xmpmeta xmlns:x="adobe:ns:meta/" x:xmptk="Adobe XMP Core 5.6-c142 79.160924, 2017/07/13-01:06:39        ">
   <rdf:RDF xmlns:rdf="http://www.w3.org/1999/02/22-rdf-syntax-ns#">
      <rdf:Description rdf:about=""/>
   </rdf:RDF>
</x:xmpmeta>
                                                                                                    
                                                                                                    
                                                                                                    
                                                                                                    
                                                                                                    
                                                                                                    
                                                                                                    
                                                                                                    
                                                                                                    
                                                                                                    
                                                                                                    
                                                                                                    
                                                                                                    
                                                                                                    
                                                                                                    
                                                                                                    
                                                                                                    
                                                                                                    
                                                                                                    
                                                                                                    
                           
<?xpacket end="w"?></metadata>
<defs>
    <style>
      .cls-1 {
        fill: white;
        fill-rule: evenodd;
      }
    </style>
  </defs>
  <path class="cls-1" d="M448.592,528.212H439.4a0.738,0.738,0,0,1,0-1.475h9.191a0.738,0.738,0,0,1,0,1.475h0ZM447.8,531.16a0.721,0.721,0,0,0,.805-0.638,0.739,0.739,0,0,0-.614-0.836,0.679,0.679,0,0,0-.191,0h-7.615a0.721,0.721,0,0,0-.794.65,0.735,0.735,0,0,0,.625.824,0.683,0.683,0,0,0,.169,0H447.8Zm-2.882,2.949a0.725,0.725,0,0,0,.845-0.6,0.748,0.748,0,0,0-.574-0.877,0.687,0.687,0,0,0-.271,0H443.07a0.722,0.722,0,0,0-.837.6,0.748,0.748,0,0,0,.582.87,0.683,0.683,0,0,0,.255,0h1.852Zm4.358,19.171a0.738,0.738,0,0,0,0-1.474H438.734a0.738,0.738,0,0,0,0,1.474H449.28Zm-1.476-2.965a0.714,0.714,0,0,0,.813-0.612,0.734,0.734,0,0,0-.589-0.844,0.7,0.7,0,0,0-.224,0h-7.615a0.714,0.714,0,0,0-.813.612,0.734,0.734,0,0,0,.589.844,0.7,0.7,0,0,0,.224,0H447.8Zm-2.882-2.936a0.723,0.723,0,0,0,.845-0.6,0.749,0.749,0,0,0-.574-0.878,0.687,0.687,0,0,0-.271,0H443.07a0.724,0.724,0,0,0-.837.605,0.747,0.747,0,0,0,.582.869,0.683,0.683,0,0,0,.255,0h1.852Zm9.447-19.4c0-.424-0.036-1.277-0.071-1.982h-3.123c0.007,0.5.029,1.742,0.029,1.982-0.029,1.162-.412,4.551-5.99,8.833,0.12,0.078.234,0.157,0.354,0.238,0.9,0.577,1.718,1.167,2.477,1.763,5.323-4.447,6.352-8.664,6.324-10.831v0Zm-18.2,25.15c0.042-.605.1-5.437,6.628-10.5-0.085-.051-0.149-0.1-0.234-0.158-0.944-.608-1.81-1.215-2.619-1.824-6.423,5.462-6.969,11.183-6.934,12.488,0,0.157.007,0.261,0.007,0.312a2.148,2.148,0,0,0,.149.563h2.854A1.752,1.752,0,0,0,436.165,553.128Zm18.835,0c0.05-1.5-.681-8.772-10.12-14.833-3.84-2.477-5.869-4.594-6.913-6.2a6.1,6.1,0,0,1-1.164-3.5c-0.007-.4.043-1.717,0.064-2.594h-3.158c-0.021.775-.071,2.04-0.071,2.594a9.78,9.78,0,0,0,1.739,5.464c1.4,2.148,3.8,4.524,7.878,7.167,8.5,5.552,8.538,11.263,8.587,11.9,0,0.044-.007.044,0,0.044a1.72,1.72,0,0,0,.149.832h2.853a1.767,1.767,0,0,0,.149-0.616C454.993,553.356,455,553.267,455,553.128Z" transform="translate(-428 -524)"/>
</svg>
