<svg xmlns="http://www.w3.org/2000/svg" width="20" height="20" viewBox="0 0 20 20">
  <defs>
    <style>
      .cls-1 {
        fill: #e8f1ff;
        fill-rule: evenodd;
      }
    </style>
  </defs>
  <path id="export" class="cls-1" d="M653.062,187L659,190.988l-5.936,4.285v-2.364a12.815,12.815,0,0,0-2.873.087,10.086,10.086,0,0,0-5.426,2.287s1.534-4.4,5.5-5.25c3.184-.684,2.8-0.669,2.8-0.669V187Zm-7.562,4a3.5,3.5,0,1,0,3.5,3.5c0-.066-0.016-0.127-0.019-0.192l1.966-.337c0.017,0.177.053,0.348,0.053,0.529a5.5,5.5,0,1,1-5.5-5.5,5.413,5.413,0,0,1,.652.066l-0.382,1.961C645.68,191.02,645.593,191,645.5,191Z" transform="translate(-639.5 -183.5)"/>
</svg>
