<svg xmlns="http://www.w3.org/2000/svg" width="32" height="32" viewBox="0 0 32 32">
  <defs>
    <style>
      .cls-1 {
        fill: #2e3f58;
        fill-rule: evenodd;
      }
    </style>
  </defs>
  <path id="Settings" class="cls-1" d="M441.594,287.5a5.906,5.906,0,1,1,5.906,5.906A5.906,5.906,0,0,1,441.594,287.5Zm-5.907-2.531A1.687,1.687,0,0,0,434,286.656v1.688a1.687,1.687,0,0,0,1.687,1.687h2.393a9.7,9.7,0,0,0,.971,2.34l-1.694,1.692a1.687,1.687,0,0,0,0,2.386l1.193,1.194a1.688,1.688,0,0,0,2.387,0l1.692-1.694a9.687,9.687,0,0,0,2.34.971v2.393A1.687,1.687,0,0,0,446.656,301h1.688a1.687,1.687,0,0,0,1.687-1.687v-2.4a9.681,9.681,0,0,0,2.336-.967l1.7,1.694a1.687,1.687,0,0,0,2.386,0l1.194-1.194a1.687,1.687,0,0,0,0-2.386l-1.694-1.7a9.681,9.681,0,0,0,.967-2.336h2.4A1.687,1.687,0,0,0,461,288.344v-1.688a1.687,1.687,0,0,0-1.688-1.687H456.92a9.7,9.7,0,0,0-.971-2.34l1.693-1.692a1.687,1.687,0,0,0,0-2.386l-1.193-1.194a1.687,1.687,0,0,0-2.386,0l-1.692,1.694a9.7,9.7,0,0,0-2.34-.971v-2.393A1.687,1.687,0,0,0,448.344,274h-1.688a1.687,1.687,0,0,0-1.687,1.687v2.4a9.688,9.688,0,0,0-2.337.967l-1.695-1.694a1.689,1.689,0,0,0-2.386,0l-1.194,1.194a1.687,1.687,0,0,0,0,2.386l1.694,1.695a9.688,9.688,0,0,0-.967,2.337h-2.4Zm9.282,2.531a2.531,2.531,0,1,0,2.531-2.531A2.531,2.531,0,0,0,444.969,287.5Z" transform="translate(-431.5 -271.5)"/>
</svg>
