<svg id="Layer_1" data-name="Layer 1" xmlns="http://www.w3.org/2000/svg" width="48" height="48" viewBox="0 0 48 48"><defs><style>.cls-1,.cls-2{fill:#e8f1ff;}.cls-2{fill-rule:evenodd;}</style></defs><title>Globe</title><g id="Http_copy_2" data-name="Http copy 2"><path class="cls-1" d="M24.00032,4V6h.00031a17.99286,17.99286,0,1,1-.01554,0l.01523-2m0,0H23.9818A20.00006,20.00006,0,0,0,4,24v.01831A19.99984,19.99984,0,0,0,23.99966,44h.01853a20,20,0,0,0-.01787-40Z"/></g><path class="cls-2" d="M40.67936,26.91093c-.36614-.29635-.77781-.65271-1.32689-1.13273-1.85334-1.62364-1.5559-2-.572-3.4a5.99146,5.99146,0,0,1,1.78463-1.90183,13.30354,13.30354,0,0,1,.43457,3.45454A14.36959,14.36959,0,0,1,40.67936,26.91093Z"/><path class="cls-2" d="M26.78146,30.50624c-1.309-1.128-2-1.72918-1.76358-3.00573a9.73117,9.73117,0,0,1,.92729-2.85546,1.47948,1.47948,0,0,1,2.01172-.4172c.02064.013.04106.02657.061.0406,1.23646.686,2.87265,1.27834,4.49086,2.25429s3.94553-.1503,3.32719,1.72918.38174,1.57712-1.47284,3.38057-2.63627,1.72918-3.94553,3.53616a17.67085,17.67085,0,0,0-2.78187,3.90747c-.61812,1.57712-.85449,1.27655-.69092-.60114s.54554-3.08176.61812-4.73491S28.10892,31.63249,26.78146,30.50624Z"/><path class="cls-2" d="M23.86261,7a17.31239,17.31239,0,0,1,11.95516,4.74182,5.48773,5.48773,0,0,0-1.72388,1.1309c-1.33449.85091-1.4087,1.31456-2.2798.85091s-.63014-.77273-1.01953-1.85455a2.518,2.518,0,0,0-1.89064-1.7A27.8616,27.8616,0,0,1,26.068,8.85454c-1.18629-.61817-1.353.15456-2.20559.54546A3.56633,3.56633,0,0,0,22.046,12.2582c-.48194,1.77817,1.18628.69635,2.354.85091s1.03809-.15456,1.03809-.92726-.241-1.77818.38916-2,.77857.46364,2.20559,1.00364a4.16051,4.16051,0,0,1,2.354,2.78181c.48193,1.16-.1482,1.23635-.70435,1.85455s-.77857.46365-2.2798.54546-.87111,1.23635-1.74221,2.16365,1.74221-.61818.241.54546-1.2605,1.62364-2.1316,1.16-1.01953-.15456-2.2798.15455-.46339,1.7.241,2.24A6.44078,6.44078,0,0,1,24.641,25.25824c.5747,1.01091-2.03883-1.31273-4.33719-2.24s-2.42823-2.24182-3.85525-3.24546a5.49745,5.49745,0,0,1-2.354-4.40546A8.97959,8.97959,0,0,0,12,11.65642,17.38677,17.38677,0,0,1,23.86261,7Z"/></svg>