<svg xmlns="http://www.w3.org/2000/svg" viewBox="0 0 286.5 94.45"><defs><style>.cls-1,.cls-2{fill:#231f20;}.cls-2{stroke:#fff;stroke-miterlimit:10;stroke-width:2px;}.cls-3{fill:#fff;}</style></defs><title>Asset 1</title><g id="Layer_2" data-name="Layer 2"><g id="Layer_1-2" data-name="Layer 1"><path class="cls-1" d="M85.72,93.43A4.14,4.14,0,0,1,79.86,93c-1-1.22-1.06-3.1-1.06-5.84s.06-4.62,1.06-5.84a4.14,4.14,0,0,1,5.86-.42A4.6,4.6,0,0,1,87,84.09H84.16a2.7,2.7,0,0,0-.22-1.1.94.94,0,0,0-1-.54A1,1,0,0,0,82,83a13,13,0,0,0-.38,4.16A13,13,0,0,0,82,91.33a1,1,0,0,0,1,.56,1,1,0,0,0,1-.56,2.68,2.68,0,0,0,.22-1.1H87A4.65,4.65,0,0,1,85.72,93.43Z"/><path class="cls-1" d="M96.7,94.29v-6H94.34v6H91.5V80h2.84v5.72H96.7V80h2.84V94.29Z"/><path class="cls-1" d="M104.54,94.29V80h6.56v2.56h-3.72v3.22h3.2v2.56h-3.2v3.34h3.72v2.56Z"/><path class="cls-1" d="M122.14,93.43a4.14,4.14,0,0,1-5.86-.42c-1-1.22-1.06-3.1-1.06-5.84s.06-4.62,1.06-5.84a4.14,4.14,0,0,1,5.86-.42,4.6,4.6,0,0,1,1.28,3.18h-2.84a2.7,2.7,0,0,0-.22-1.1.94.94,0,0,0-1-.54,1,1,0,0,0-1,.56,13,13,0,0,0-.38,4.16,13,13,0,0,0,.38,4.16,1,1,0,0,0,1,.56,1,1,0,0,0,1-.56,2.68,2.68,0,0,0,.22-1.1h2.84A4.65,4.65,0,0,1,122.14,93.43Z"/><path class="cls-1" d="M133.72,94.29l-2-5.2L130.76,91v3.28h-2.84V80h2.84v6.12l2.7-6.12h2.84L133.46,86l3.3,8.32Z"/><path class="cls-1" d="M154.58,89.13H153.4v5.16h-2.84V80h4c3.08,0,4,1.76,4,4.54S157.66,89.13,154.58,89.13Zm-.08-6.52h-1.1v4h1.1c1.2,0,1.24-1.08,1.24-2S155.7,82.61,154.5,82.61Z"/><path class="cls-1" d="M171.18,93a4.1,4.1,0,0,1-6.24,0c-1-1.22-1.06-3.1-1.06-5.84s.06-4.62,1.06-5.84a4.1,4.1,0,0,1,6.24,0c1,1.22,1.06,3.1,1.06,5.84S172.18,91.79,171.18,93ZM169,83a1.1,1.1,0,0,0-1.92,0,13,13,0,0,0-.38,4.16,13,13,0,0,0,.38,4.16,1.1,1.1,0,0,0,1.92,0,13,13,0,0,0,.38-4.16A13,13,0,0,0,169,83Z"/><path class="cls-1" d="M178,94.29V80h2.84V94.29Z"/><path class="cls-1" d="M192.92,94.29l-3-7v7h-2.84V80h2.48l3,7V80h2.84V94.29Z"/><path class="cls-1" d="M206.08,82.61V94.29h-2.84V82.61h-2.4V80h7.64v2.56Z"/><polygon class="cls-2" points="273.99 40.84 12.52 40.84 2.52 31.4 283.99 31.4 273.99 40.84"/><polygon class="cls-2" points="257.79 50.28 28.72 50.28 18.72 40.84 267.79 40.84 257.79 50.28"/><path class="cls-2" d="M236.41,59.72H50.09l-10-9.42a0,0,0,0,1,0,0H246.39a0,0,0,0,1,0,0Z"/><path d="M143.18,77.55c-1.14,0-1.75-1-2.29-1.83l-2.28-3.63c-1.43-2.28-2.85-4.55-4.3-6.82-1.29-2-2.12-2.25-2.63-2.25A5.18,5.18,0,0,0,129,64.3a3.44,3.44,0,0,1-2.05.83,3.05,3.05,0,0,1-2.36-1.41c-3.08-4.14-6.46-8.58-10.33-13.56a4.84,4.84,0,0,1-.82-4.9l.49-1.35c.47-1.29.95-2.63,1.5-3.94a4.88,4.88,0,0,0,.12-4.07l0-.11a6.89,6.89,0,0,1-.7-3,1.5,1.5,0,0,1,2-1.38l.13,0a2,2,0,0,1,1,.54l3.49,3.66q2.34,2.46,4.68,4.91c1.14,1.19,1.07,2.48-.22,3.83-2.63,2.78-2.74,6.05-.35,8.6a5.52,5.52,0,0,0,4.08,1.73,6.61,6.61,0,0,0,4.35-1.7,3.35,3.35,0,0,1,2.28-1,3.58,3.58,0,0,1,1.11.19,3.78,3.78,0,0,0,1.15.2,2.41,2.41,0,0,0,2-1.07,3.43,3.43,0,0,1,2.59-1.6,3.56,3.56,0,0,1,2.63,1.54,2.81,2.81,0,0,0,2.19,1.13,3.24,3.24,0,0,0,.95-.15,4.14,4.14,0,0,1,1.22-.2,3.74,3.74,0,0,1,2.59,1.16,5.7,5.7,0,0,0,3.9,1.53,5.93,5.93,0,0,0,5.75-4.45,5.69,5.69,0,0,0-1.7-5.84l-.14-.14c-1.69-1.63-.9-3-.28-3.62l8.47-8.91a1.5,1.5,0,0,1,1.39-.44l.71.15a1.5,1.5,0,0,1,.92,2.33c-2.12,3-1.08,5.55.24,8.76.27.65.54,1.3.77,2l-1.35.67,1.39-.56a4.94,4.94,0,0,1-.7,5.09c-3.81,5.07-7.12,9.56-10.11,13.73a3.31,3.31,0,0,1-2.55,1.62h0a3.65,3.65,0,0,1-2.27-1A3.83,3.83,0,0,0,154.8,63c-.92,0-1.79.67-2.61,2q-3.35,5.39-6.75,10.76C144.91,76.61,144.31,77.55,143.18,77.55Zm0-20c-.91,1-1.85,2-2.76,2.89l-.32.32c-.47.48-.39.59-.14.95.88,1.25,1.73,2.51,2.59,3.77l.63.93c1.18-1.74,2.31-3.44,3.44-5.15a1.46,1.46,0,0,0-.33-.45c-.53-.57-1.07-1.13-1.61-1.69S143.67,58,143.18,57.51Z"/><path class="cls-3" d="M169.77,32.82l.71.14c-3.1,4.4-.59,8.19.83,12.09l.06.16a3.44,3.44,0,0,1-.51,3.63q-5.13,6.83-10.13,13.76c-.48.67-.88,1-1.33,1a2.23,2.23,0,0,1-1.32-.66,5.24,5.24,0,0,0-3.28-1.41c-1.46,0-2.78.92-3.89,2.7q-3.35,5.39-6.74,10.75c-.45.72-.72,1.07-1,1.07s-.55-.38-1-1.13c-2.19-3.48-4.37-7-6.58-10.45-1.26-2-2.47-2.95-3.89-2.95a6.36,6.36,0,0,0-3.62,1.58,2.08,2.08,0,0,1-1.16.53c-.38,0-.74-.24-1.15-.81Q120.66,56,115.4,49.24a3.34,3.34,0,0,1-.6-3.46c.64-1.75,1.24-3.51,2-5.22a6.4,6.4,0,0,0,.13-5.24,5.78,5.78,0,0,1-.63-2.48c.26.09.46.09.55.19,2.73,2.85,5.44,5.72,8.17,8.56.75.78.25,1.25-.29,1.82-3.11,3.29-3.22,7.48-.3,10.6a7,7,0,0,0,5.17,2.21,8.1,8.1,0,0,0,5.34-2.08,1.91,1.91,0,0,1,1.29-.61,2.11,2.11,0,0,1,.65.11,5.26,5.26,0,0,0,1.61.27,3.92,3.92,0,0,0,3.24-1.68c.51-.69,1-1,1.39-1s1,.38,1.48,1a4.29,4.29,0,0,0,3.33,1.66,4.72,4.72,0,0,0,1.39-.22,2.66,2.66,0,0,1,.78-.13,2.29,2.29,0,0,1,1.58.77,7.22,7.22,0,0,0,4.91,1.92,7.41,7.41,0,0,0,7.21-5.58,7.2,7.2,0,0,0-2.08-7.27c-.47-.48-1.12-.91-.4-1.67l8.47-8.91M143.19,68.54c.2,0,.42-.14.67-.5q2-3,4-6a2.76,2.76,0,0,0,.25-.66,2.29,2.29,0,0,0-.75-1.6c-1.14-1.24-2.34-2.42-3.48-3.67a1,1,0,0,0-.73-.43,1.14,1.14,0,0,0-.78.48c-1.1,1.21-2.24,2.37-3.38,3.53a2,2,0,0,0-.29,2.86c1.23,1.74,2.41,3.52,3.62,5.29.26.38.53.73.85.73m-27-38.72a3,3,0,0,0-3,2.91,8.28,8.28,0,0,0,.82,3.64l0,.1a3.41,3.41,0,0,1-.12,2.9c-.57,1.34-1.06,2.7-1.54,4L112,44.74a6.33,6.33,0,0,0,1,6.34c3.86,5,7.23,9.39,10.31,13.54a4.38,4.38,0,0,0,3.56,2,4.88,4.88,0,0,0,3-1.13c1.29-1,1.8-1,1.82-1s.47.17,1.36,1.56c1.44,2.26,2.86,4.53,4.29,6.8l2.28,3.64c.6.95,1.59,2.53,3.56,2.53s2.94-1.54,3.52-2.46c2-3.18,4.17-6.61,6.76-10.77.59-.95,1.09-1.28,1.34-1.28a2.62,2.62,0,0,1,1.36.72,5.09,5.09,0,0,0,3.23,1.35,4.73,4.73,0,0,0,3.77-2.25c3-4.14,6.27-8.62,10.09-13.71a6.44,6.44,0,0,0,.89-6.56l0-.07c-.25-.69-.53-1.36-.8-2-1.35-3.28-2-5.09-.4-7.32A3,3,0,0,0,171.08,30l-.35-.07-.35-.07a3,3,0,0,0-2.78.87l-2.28,2.39-6.2,6.52a3.85,3.85,0,0,0,.33,5.73l.11.11a4.21,4.21,0,0,1,1.31,4.41,4.44,4.44,0,0,1-4.3,3.32,4.22,4.22,0,0,1-2.89-1.14,5.29,5.29,0,0,0-3.61-1.55,5.6,5.6,0,0,0-1.67.27,1.74,1.74,0,0,1-.51.09c-.15,0-.54,0-1-.59a5,5,0,0,0-3.78-2.08,4.71,4.71,0,0,0-3.8,2.2.93.93,0,0,1-.83.47,2.29,2.29,0,0,1-.69-.12,5.05,5.05,0,0,0-1.57-.26,4.85,4.85,0,0,0-3.27,1.36,5.11,5.11,0,0,1-3.36,1.33,4,4,0,0,1-3-1.26c-1.85-2-1.74-4.34.29-6.49l.06-.06c2.72-2.86.85-5.24.21-5.9q-2.35-2.45-4.69-4.91L119,30.95a3.43,3.43,0,0,0-1.78-1h-.05a3,3,0,0,0-.91-.14Zm25.33,31.53,1.61-1.66.42.43,1.15,1.2-1.57,2.36c-.52-.77-1.06-1.56-1.6-2.33Z"/><path d="M148,50.66a3.39,3.39,0,0,1-2.38-1.22c-1-1-1.8-1.52-2.44-1.52s-1.37.47-2.31,1.44a3.52,3.52,0,0,1-2.45,1.27,3.59,3.59,0,0,1-2.54-1.38q-7.7-8.27-15.45-16.49l-6.77-7.2a2.68,2.68,0,0,1-.66-3.43,3.47,3.47,0,0,1,3.17-1.62,4.73,4.73,0,0,1,3,1.26l2,1.55c2.44,1.88,5,3.83,7.42,5.78a5.08,5.08,0,0,0,3.35,1.21c3.75,0,7.45,0,11.15,0s7.6,0,11.41,0h0a4.68,4.68,0,0,0,3.11-1.06c1.92-1.52,3.87-3,5.81-4.52l3.68-2.85a5.32,5.32,0,0,1,3.3-1.38h.19a3.68,3.68,0,0,1,3,1.78,2.46,2.46,0,0,1-.61,3.13l-5.66,6q-8.48,9-16.93,18A3.32,3.32,0,0,1,148,50.66Z"/><path class="cls-3" d="M170.42,22a2.25,2.25,0,0,1,1.84,1c.38.65-.12,1-.51,1.45Q160.5,36.44,149.26,48.4a1.86,1.86,0,0,1-1.27.76,2,2,0,0,1-1.31-.77c-1.29-1.31-2.4-2-3.5-2s-2.16.63-3.39,1.9a2.05,2.05,0,0,1-1.37.81c-.46,0-.9-.32-1.44-.9-7.34-7.88-14.73-15.71-22.1-23.57-.45-.48-1.07-1-.59-1.75a2.06,2.06,0,0,1,1.9-.9h0a3.49,3.49,0,0,1,2.1,1c3.12,2.41,6.26,4.81,9.35,7.27a6.57,6.57,0,0,0,4.29,1.54H132q5.55,0,11.11,0t11.39,0h0a6.14,6.14,0,0,0,4-1.38c3.14-2.48,6.33-4.91,9.48-7.37A3.87,3.87,0,0,1,170.42,22m0-3h-.08a6.78,6.78,0,0,0-4.19,1.69l-3.69,2.86c-1.91,1.47-3.88,3-5.81,4.52a3.16,3.16,0,0,1-2.14.73c-3.83,0-7.63,0-11.44,0s-7.54,0-11.13,0h0a3.61,3.61,0,0,1-2.45-.88c-2.45-1.95-5-3.89-7.39-5.76l-2-1.54-.07-.05A6.16,6.16,0,0,0,116.18,19a5,5,0,0,0-4.46,2.34c-.61,1-1.31,3,.86,5.26l.1.11,6.69,7.12c5.06,5.38,10.29,10.94,15.4,16.44a5.07,5.07,0,0,0,3.64,1.86A5,5,0,0,0,142,50.41a3.79,3.79,0,0,1,1.23-1,4.08,4.08,0,0,1,1.36,1.06,4.38,4.38,0,0,0,6.91,0c5.63-6,11.38-12.12,16.94-18l5.54-5.87.09-.09a3.84,3.84,0,0,0,.83-4.93A5.13,5.13,0,0,0,170.72,19l-.31,0Z"/><path d="M129.73,53.49a4.64,4.64,0,0,1-4.66-4.65,4.33,4.33,0,0,1,2.45-4.12,2.74,2.74,0,0,1,1.18-.28A3,3,0,0,1,131,45.82a2.33,2.33,0,0,0,.26.31,9.64,9.64,0,0,1,1.45,1.63A2,2,0,0,0,133,48a2.59,2.59,0,0,1,.83,3.13,4.21,4.21,0,0,1-3.22,2.32,4.86,4.86,0,0,1-.83.07Z"/><path class="cls-3" d="M128.71,45.94c.73,0,1.08.88,1.6,1.33a8.31,8.31,0,0,1,1.22,1.38c.4.55,1.31.93.89,1.81a2.71,2.71,0,0,1-2.12,1.48,3.33,3.33,0,0,1-.57,0,3.16,3.16,0,0,1-3.16-3.16,2.83,2.83,0,0,1,1.6-2.75,1.25,1.25,0,0,1,.54-.14m0-3a4.22,4.22,0,0,0-1.83.43,5.85,5.85,0,0,0-3.31,5.47A6.14,6.14,0,0,0,129.73,55a6.36,6.36,0,0,0,1.08-.09,5.67,5.67,0,0,0,4.32-3.16A4,4,0,0,0,134,46.87l-.09-.08a11,11,0,0,0-1.57-1.74l-.12-.16a4.39,4.39,0,0,0-3.49-2Z"/><path d="M156.58,53.47a4.29,4.29,0,0,1-3.81-2.06,2.62,2.62,0,0,1,.67-3.48,2,2,0,0,0,.24-.24A8.38,8.38,0,0,1,155.2,46a2.38,2.38,0,0,0,.24-.28,2.89,2.89,0,0,1,2.23-1.31,2.54,2.54,0,0,1,1,.2,4.34,4.34,0,0,1,2.65,3.77,4.56,4.56,0,0,1-1.17,3.48,4.77,4.77,0,0,1-3.5,1.57Z"/><path class="cls-3" d="M157.67,46a1,1,0,0,1,.4.09,2.87,2.87,0,0,1,1.73,2.52A3.18,3.18,0,0,1,156.62,52h0A2.79,2.79,0,0,1,154,50.63c-.64-1,.47-1.47.89-2.12a7,7,0,0,1,1.26-1.35c.47-.42.81-1.21,1.48-1.21m0-3a4.32,4.32,0,0,0-3.4,1.86l-.12.14a9.9,9.9,0,0,0-1.66,1.81l-.09.09c-2.3,2.2-1.56,4.29-.92,5.34A5.81,5.81,0,0,0,156.58,55h.07a6.27,6.27,0,0,0,4.59-2.06,6.07,6.07,0,0,0,1.55-4.63,5.88,5.88,0,0,0-3.57-5,4,4,0,0,0-1.54-.31Z"/><path class="cls-1" d="M3.67,16.69V.19h2.6v16.5Z"/><path class="cls-1" d="M19,16.69l-3.89-9.8v9.8h-2.6V.19h2.32L18.71,10V.19h2.6v16.5Z"/><path class="cls-1" d="M34.38,15.83a3.85,3.85,0,0,1-2.85,1,3.92,3.92,0,0,1-3.2-1.41c-1.09-1.3-1.21-3.11-1.21-7s.12-5.73,1.21-7A3.92,3.92,0,0,1,31.53,0a4,4,0,0,1,2.9,1.07,4.84,4.84,0,0,1,1.32,3.48h-2.6a3.09,3.09,0,0,0-.39-1.6A1.54,1.54,0,0,0,30.3,3c-.51.79-.58,2.46-.58,5.47s.07,4.68.58,5.47a1.54,1.54,0,0,0,2.46,0,3.25,3.25,0,0,0,.39-1.62h2.6A5,5,0,0,1,34.38,15.83Z"/><path class="cls-1" d="M41.4,16.69V.19H44v16.5Z"/><path class="cls-1" d="M57.65,15.32a4,4,0,0,1-3.2,1.37h-4.2V.19h4.2a4,4,0,0,1,3.2,1.37c1.11,1.23,1.21,3.06,1.21,6.86S58.76,14.09,57.65,15.32ZM55.7,3.2a1.5,1.5,0,0,0-1.32-.67H52.85V14.35h1.53a1.5,1.5,0,0,0,1.32-.67c.51-.77.56-2.39.56-5.26S56.21,4,55.7,3.2Z"/><path class="cls-1" d="M64.67,16.69V.19H71.6V2.53H67.26V7.21H71V9.55H67.26v4.8H71.6v2.34Z"/><path class="cls-1" d="M83.81,16.69l-3.89-9.8v9.8h-2.6V.19h2.32L83.51,10V.19h2.6v16.5Z"/><path class="cls-1" d="M96.81,2.53V16.69h-2.6V2.53H91.46V.19h8.14V2.53Z"/><path class="cls-1" d="M118.78,16.69l-2.16-6.77h-1.46v6.77h-2.6V.19h4.17c3,0,4.22,1.46,4.22,4.87,0,2-.42,3.5-1.92,4.31l2.46,7.32Zm-2-14.16h-1.6V7.58h1.6c1.39,0,1.6-1.16,1.6-2.53S118.16,2.53,116.77,2.53Z"/><path class="cls-1" d="M127.12,16.69V.19h6.93V2.53h-4.33V7.21h3.73V9.55h-3.73v4.8h4.33v2.34Z"/><path class="cls-1" d="M146.68,15.76a4.55,4.55,0,0,1-3.22,1.09,4.37,4.37,0,0,1-3.2-1.09c-.79-.79-1.07-1.81-1.07-3.55h2.6a2.62,2.62,0,0,0,.46,1.85,1.57,1.57,0,0,0,1.21.44,1.52,1.52,0,0,0,1.25-.46,2.64,2.64,0,0,0,.44-1.83c0-1.76-.28-2.2-1.55-2.71l-2-.81c-1.67-.7-2.29-1.6-2.29-4.15A4.51,4.51,0,0,1,140.68,1a4.15,4.15,0,0,1,2.83-1,4.09,4.09,0,0,1,3,1,4.72,4.72,0,0,1,1.16,3.59H145a2.74,2.74,0,0,0-.39-1.76,1.37,1.37,0,0,0-1.16-.49,1.39,1.39,0,0,0-1.11.46,2.47,2.47,0,0,0-.44,1.62c0,1.34.21,1.76,1.37,2.22l1.95.79c2,.81,2.5,1.85,2.5,4.64C147.75,13.81,147.52,15,146.68,15.76Z"/><path class="cls-1" d="M157.65,10.22h-1.55v6.47h-2.6V.19h4.15c3,0,4.24,1.58,4.24,5S160.64,10.22,157.65,10.22Zm-.09-7.7h-1.46V7.88h1.46c1.39,0,1.74-1,1.74-2.67S158.94,2.53,157.55,2.53Z"/><path class="cls-1" d="M174.66,15.46a4.32,4.32,0,0,1-6.4,0c-1.09-1.32-1.21-3.11-1.21-7s.12-5.7,1.21-7a4.32,4.32,0,0,1,6.4,0c1.11,1.3,1.21,3.11,1.21,7S175.77,14.16,174.66,15.46ZM172.71,3a1.37,1.37,0,0,0-1.25-.63,1.33,1.33,0,0,0-1.23.63c-.49.79-.58,2.46-.58,5.47s.09,4.68.58,5.47a1.33,1.33,0,0,0,1.23.63,1.37,1.37,0,0,0,1.25-.63c.49-.79.56-2.46.56-5.47S173.2,3.75,172.71,3Z"/><path class="cls-1" d="M188.17,16.69l-3.89-9.8v9.8h-2.6V.19H184l3.87,9.8V.19h2.6v16.5Z"/><path class="cls-1" d="M203.63,15.76a4.55,4.55,0,0,1-3.22,1.09,4.37,4.37,0,0,1-3.2-1.09c-.79-.79-1.07-1.81-1.07-3.55h2.6a2.62,2.62,0,0,0,.46,1.85,1.57,1.57,0,0,0,1.21.44,1.52,1.52,0,0,0,1.25-.46,2.64,2.64,0,0,0,.44-1.83c0-1.76-.28-2.2-1.55-2.71l-2-.81c-1.67-.7-2.29-1.6-2.29-4.15A4.51,4.51,0,0,1,197.62,1a4.15,4.15,0,0,1,2.83-1,4.09,4.09,0,0,1,3,1,4.72,4.72,0,0,1,1.16,3.59H202a2.74,2.74,0,0,0-.39-1.76,1.37,1.37,0,0,0-1.16-.49,1.39,1.39,0,0,0-1.11.46,2.47,2.47,0,0,0-.44,1.62c0,1.34.21,1.76,1.37,2.22l1.95.79c2,.81,2.5,1.85,2.5,4.64C204.69,13.81,204.46,15,203.63,15.76Z"/><path class="cls-1" d="M210.44,16.69V.19h6.93V2.53H213V7.21h3.73V9.55H213v4.8h4.33v2.34Z"/><path class="cls-1" d="M235.17,2.53V16.69h-2.6V2.53h-2.76V.19h8.14V2.53Z"/><path class="cls-1" d="M243.3,16.69V.19h6.93V2.53h-4.33V7.21h3.73V9.55h-3.73v4.8h4.33v2.34Z"/><path class="cls-1" d="M262.56,16.69l-.67-3.27h-3.82l-.65,3.27h-2.73L258.73.19h2.53l4,16.5ZM260,4.17l-1.41,6.91h2.83Z"/><path class="cls-1" d="M278.76,16.69V6.4l-2.25,6.77h-1.44l-2.2-6.65V16.69h-2.6V.19h2.34l3.2,8.67L279,.19h2.36v16.5Z"/></g></g></svg>