<svg id="Layer_1" data-name="Layer 1" xmlns="http://www.w3.org/2000/svg" width="48" height="48" viewBox="0 0 48 48"><defs><style>.cls-1,.cls-2{fill:#e8f1ff;}.cls-2{fill-rule:evenodd;}</style></defs><title>Virus</title><path class="cls-1" d="M24,5A19,19,0,1,1,5,24,19.02149,19.02149,0,0,1,24,5m0-2A21,21,0,1,0,45,24,21,21,0,0,0,24,3Z"/><path class="cls-2" d="M35.99994,27.97764a6.86,6.86,0,0,1-.20182,1.65631c.00775-.115.01626-.22983.01626-.34664a4.53044,4.53044,0,0,0-4.42533-4.69257A4.77119,4.77119,0,0,0,26.83846,29.494a4.51416,4.51416,0,0,0,4.55059,4.68959,4.258,4.258,0,0,0,.94033-.1438,5.96029,5.96029,0,0,1-8.04995-2.80639,6.77276,6.77276,0,0,1-5.80028,3.87275,6.40083,6.40083,0,0,1-3.01582-.62148,4.79513,4.79513,0,0,0,.672.02725A5.13906,5.13906,0,0,0,20.987,29.34118a4.86653,4.86653,0,0,0-4.85171-4.9523A5.009,5.009,0,0,0,12,26.683a6.79568,6.79568,0,0,1,6.47915-5.04631,6.45538,6.45538,0,0,1,1.02409.08675,6.78076,6.78076,0,0,1-1.7386-4.551,6.52064,6.52064,0,0,1,4.37164-6.23889,4.48658,4.48658,0,0,0-2.26093,3.9524,4.492,4.492,0,0,0,4.38012,4.58734A4.36478,4.36478,0,0,0,28.51307,15a4.64117,4.64117,0,0,0-2.25787-4.00884,6.74948,6.74948,0,0,1,2.67371,10.70855,5.96682,5.96682,0,0,1,.94562-.09042A6.22222,6.22222,0,0,1,35.99994,27.97764Z"/></svg>