<svg xmlns="http://www.w3.org/2000/svg" viewBox="0 0 54 52.963"><defs><style>.a{fill:none;stroke:#e8f1ff;stroke-miterlimit:10;stroke-width:2px;}</style></defs><path class="a" d="M3358.5,692v-6.126c0-1.794-4.483-4.446-11.207-7.061-6.873-2.577-9.04-4.781-9.04-9.451,0-2.8,2.092-1.868,3.026-7.023.373-2.129,2.2,0,2.615-4.931,0-1.942-1.009-2.428-1.009-2.428s.486-2.877.71-5.081-1.569-9.862-11.207-9.862-11.244,7.135-11.244,9.862a19.747,19.747,0,0,0,.709,5.081s-.709.486-.709,2.428c.373,4.894,2.2,2.764,2.615,4.931.9,5.118,2.988,4.221,2.988,7.023,0,4.707-2.167,6.911-9.04,9.489s-11.207,5.229-11.207,7.023V692" transform="translate(-3305.5 -639.037)"/></svg>