<svg id="Layer_1" data-name="Layer 1" xmlns="http://www.w3.org/2000/svg" width="48" height="48" viewBox="0 0 48 48"><defs><style>.cls-1{fill:#ffd546;}</style></defs><title>Confidence Low_1</title><path class="cls-1" d="M24,5c4.85628,0,15.78571,3.626,16.99876,5.61-.01712,1.30712-.21177,7.517-.66183,11.11132a30.01957,30.01957,0,0,1-6.3052,13.832,31.99586,31.99586,0,0,1-10.0335,7.26124,31.82282,31.82282,0,0,1-10.02994-7.26124,30.01939,30.01939,0,0,1-6.30522-13.832c-.44873-3.58374-.64356-9.7677-.66167-11.09961C8.24668,8.68018,19.31268,5,24,5m0-2C19.46359,3,5,7.06787,5,10.45471c0,.67737.17362,7.48242.67857,11.51514A31.89318,31.89318,0,0,0,12.46429,36.8717,34.18105,34.18105,0,0,0,24,45a34.18105,34.18105,0,0,0,11.53571-8.1283,31.89318,31.89318,0,0,0,6.78572-14.90185C42.82638,17.93713,43,11.13208,43,10.45471,43,7.06787,28.87664,3,24,3Z"/><path class="cls-1" d="M24.00288,11.50391c1.952.00134,7.20728,1.36718,10.37035,2.6615-.09889,2.21423-.25955,4.90869-.48984,6.7478a23.64184,23.64184,0,0,1-4.74255,10.3529,22.41235,22.41235,0,0,1-5.14009,4.17932,22.38277,22.38277,0,0,1-5.14148-4.17919,23.64157,23.64157,0,0,1-4.74263-10.353c-.229-1.82874-.38918-4.50342-.48819-6.70752,3.17-1.29016,8.41127-2.67249,10.37443-2.70178"/></svg>