<svg id="Layer_1" data-name="Layer 1" xmlns="http://www.w3.org/2000/svg" width="48" height="48" viewBox="0 0 48 48"><defs><style>.cls-1{opacity:0.5;}.cls-2{fill:#788096;}</style></defs><title>Confidence Low</title><g class="cls-1"><path class="cls-2" d="M24.00011,5h0c4.85626,0,15.78564,3.62573,16.9987,5.60962-.0171,1.30713-.21164,7.51721-.6616,11.11145a30.01974,30.01974,0,0,1-6.30491,13.832,31.99689,31.99689,0,0,1-10.03334,7.26148,31.82391,31.82391,0,0,1-10.03008-7.261A30.02,30.02,0,0,1,7.66331,21.72168c-.44884-3.58386-.64378-9.7677-.6619-11.09961C8.2467,8.68054,19.31277,5.00012,24.00011,5m0-2h-.00022C19.46343,3.00012,4.99993,7.06836,5,10.45508c0,.67737.17377,7.48242.67881,11.51513a31.89363,31.89363,0,0,0,6.786,14.90174A34.18144,34.18144,0,0,0,24.00072,45a34.18062,34.18062,0,0,0,11.53554-8.12854,31.89356,31.89356,0,0,0,6.78541-14.902C42.82654,17.93665,43,11.13171,43,10.45435,42.99993,7.06775,28.87753,3,24.00006,3Z"/><path class="cls-2" d="M24.00291,11.50391c1.952.0013,7.2073,1.367,10.3704,2.66128-.09885,2.21423-.25945,4.9087-.4897,6.74781a23.64189,23.64189,0,0,1-4.74234,10.353,22.4122,22.4122,0,0,1-5.14,4.17942,22.38314,22.38314,0,0,1-5.14157-4.17909,23.6415,23.6415,0,0,1-4.74284-10.35293c-.22905-1.82873-.38927-4.50341-.48833-6.7075,3.16994-1.29023,8.41121-2.67267,10.37438-2.702"/></g></svg>