<svg id="Layer_1" data-name="Layer 1" xmlns="http://www.w3.org/2000/svg" width="80" height="80" viewBox="0 0 80 80"><defs><style>.cls-1{fill:#d7462b;}</style></defs><title>Adobe </title><path class="cls-1" d="M47.86438,44.164C44.354,42.60143,40.96477,38.39676,39.633,34.07109c4.9082-13.28053.60528-12.25482-2.17862-11.89466-2.78391.36111.60528,12.61592.60528,12.61592s-3.38919,8.6504-6.41559,12.97608c-2.90418,1.44157-14.52479,7.44893-9.31977,9.73182s7.38365-3.72447,10.16755-8.53035c1.21056-.84132,9.441-2.88411,14.40355-3.60441C48.7112,46.92711,59,51.49289,59,46.92711S52.94719,43.5628,47.86438,44.164M24.51549,55.83778c-1.74794-1.36954,4.96738-5.38789,4.96738-5.38789s-3.21944,6.75743-4.96738,5.38789M39.116,23.617c2.69466.73759.46463,6.08707.09312,7.19442,0,0-2.78779-7.933-.09312-7.19442M35.27183,45.911A44.88968,44.88968,0,0,0,38.825,38.93747s2.42306,3.52662,4.2001,4.64934c-4.44163.96137-7.26822,1.76331-7.75322,2.32419m15.10583-.92968s6.48252-.9047,7.08974,1.407c.60722,2.31267-4.96253,0-7.08974-1.407"/><path class="cls-1" d="M65,5V75H27.07108L15,62.929V5H65m0-5H15a5,5,0,0,0-5,5V65L25,80H65a5,5,0,0,0,5-5V5a5,5,0,0,0-5-5Z"/></svg>