<svg id="Layer_1" data-name="Layer 1" xmlns="http://www.w3.org/2000/svg" width="80" height="80" viewBox="0 0 80 80"><defs><style>.cls-1{fill:#bfbfbf;}</style></defs><title>Generic compression </title><path class="cls-1" d="M40.76641,12H33.23359A1.33116,1.33116,0,0,1,32,10.59446V9.40426A1.33076,1.33076,0,0,1,33.23359,8h7.53282A1.33152,1.33152,0,0,1,42,9.40426v1.1902A1.33192,1.33192,0,0,1,40.76641,12"/><path class="cls-1" d="M40.76641,28H33.23359A1.33116,1.33116,0,0,1,32,26.59446v-1.1902A1.33076,1.33076,0,0,1,33.23359,24h7.53282A1.33152,1.33152,0,0,1,42,25.40426v1.1902A1.33192,1.33192,0,0,1,40.76641,28"/><path class="cls-1" d="M40.76641,20H33.23359A1.33116,1.33116,0,0,1,32,18.59446v-1.1902A1.33076,1.33076,0,0,1,33.23359,16h7.53282A1.33152,1.33152,0,0,1,42,17.40426v1.1902A1.33192,1.33192,0,0,1,40.76641,20"/><path class="cls-1" d="M40.76641,44H33.23359A1.33116,1.33116,0,0,1,32,42.59446v-1.1902A1.33076,1.33076,0,0,1,33.23359,40h7.53282A1.33152,1.33152,0,0,1,42,41.40426v1.1902A1.33192,1.33192,0,0,1,40.76641,44"/><path class="cls-1" d="M40.76641,36H33.23359A1.33116,1.33116,0,0,1,32,34.59446v-1.1902A1.33076,1.33076,0,0,1,33.23359,32h7.53282A1.33152,1.33152,0,0,1,42,33.40426v1.1902A1.33192,1.33192,0,0,1,40.76641,36"/><path class="cls-1" d="M47.51453,52.14373C47.51453,50.96468,46.84675,50,46.03,50h-9.2159c-.81676,0-1.48454.96468-1.48454,2.14373l-.74173,16.71254c0,1.17905.66778,2.14373,1.48347,2.14373h10.7015c.81569,0,1.48347-.96468,1.48347-2.14373ZM46,67.08015C46,68.13607,45.381,69,44.62387,69H38.37514C37.619,69,37,68.13607,37,67.08015v-.1603C37,65.86393,37.619,65,38.37514,65h6.24873C45.381,65,46,65.86393,46,66.91985Z"/><path class="cls-1" d="M65,5V75H27.07109L15,62.929V5H65m0-5H15a5,5,0,0,0-5,5V65L25,80H65a5,5,0,0,0,5-5V5a5,5,0,0,0-5-5Z"/><path class="cls-1" d="M50.76641,16H43.23359A1.33116,1.33116,0,0,1,42,14.59446v-1.1902A1.33076,1.33076,0,0,1,43.23359,12h7.53282A1.33152,1.33152,0,0,1,52,13.40426v1.1902A1.33192,1.33192,0,0,1,50.76641,16"/><path class="cls-1" d="M50.76641,32H43.23359A1.33116,1.33116,0,0,1,42,30.59446v-1.1902A1.33076,1.33076,0,0,1,43.23359,28h7.53282A1.33152,1.33152,0,0,1,52,29.40426v1.1902A1.33192,1.33192,0,0,1,50.76641,32"/><path class="cls-1" d="M50.76641,24H43.23359A1.33116,1.33116,0,0,1,42,22.59446v-1.1902A1.33076,1.33076,0,0,1,43.23359,20h7.53282A1.33152,1.33152,0,0,1,52,21.40426v1.1902A1.33192,1.33192,0,0,1,50.76641,24"/><path class="cls-1" d="M50.76641,48H43.23359A1.33116,1.33116,0,0,1,42,46.59446v-1.1902A1.33076,1.33076,0,0,1,43.23359,44h7.53282A1.33152,1.33152,0,0,1,52,45.40426v1.1902A1.33192,1.33192,0,0,1,50.76641,48"/><path class="cls-1" d="M50.76641,40H43.23359A1.33116,1.33116,0,0,1,42,38.59446v-1.1902A1.33076,1.33076,0,0,1,43.23359,36h7.53282A1.33152,1.33152,0,0,1,52,37.40426v1.1902A1.33192,1.33192,0,0,1,50.76641,40"/></svg>