<svg id="Layer_1" data-name="Layer 1" xmlns="http://www.w3.org/2000/svg" width="80" height="80" viewBox="0 0 80 80"><defs><style>.cls-1{fill:#bfbfbf;}</style></defs><title>code</title><path class="cls-1" d="M50.87383,49l-2.95334-2.93963L55.01381,39l-7.09332-7.06037L50.87383,29,60.92049,39Z"/><path class="cls-1" d="M18.92049,39,28.96715,29l2.95334,2.93963L24.82718,39l7.09331,7.06037L28.96715,49Z"/><path class="cls-1" d="M37.09308,51.09249H32.92049l9.83-24h4.17Z"/><path class="cls-1" d="M65,5V75H27.07111L15,62.929V5H65m0-5H15a5,5,0,0,0-5,5V65L25,80H65a5,5,0,0,0,5-5V5a5,5,0,0,0-5-5Z"/></svg>