<svg id="Layer_1" data-name="Layer 1" xmlns="http://www.w3.org/2000/svg" width="80" height="80" viewBox="0 0 80 80"><defs><style>.cls-1{fill:#fff;}.cls-2{fill:#359937;}</style></defs><title>Excel</title><path class="cls-1" d="M35.87777,39.29413,26.8166,26h8.51673l4.66673,8.70584L44.93894,26H53.1834L44.2,39.29413,54,54H45.21111l-5.211-9.33337L34.3222,54H26Z"/><polygon class="cls-2" points="53.183 26 44.939 26 40 34.706 35.333 26 26.817 26 35.878 39.294 26 54 34.322 54 40 44.667 45.211 54 54 54 44.2 39.294 53.183 26 53.183 26"/><path class="cls-2" d="M65,5V75H27.07109L15,62.929V5H65m0-5H15a5,5,0,0,0-5,5V65L25,80H65a5,5,0,0,0,5-5V5a5,5,0,0,0-5-5Z"/></svg>