<svg id="Layer_1" data-name="Layer 1" xmlns="http://www.w3.org/2000/svg" width="80" height="80" viewBox="0 0 80 80"><defs><style>.cls-1{fill:#bfbfbf;}</style></defs><title>Generic windows system executable </title><rect class="cls-1" x="20" y="43" width="3" height="3"/><path class="cls-1" d="M25,33H35v3H28v2h6v3H28v2h7v3H25Z"/><path class="cls-1" d="M40.79449,39.199l-4.27612-6.148h4.01915L42.73983,37.077,45.07062,33.051h3.89067l-4.23946,6.148L49.34674,46H45.1991l-2.45927-4.31639L40.06039,46H36.13291Z"/><path class="cls-1" d="M50,33H61v3H54v2h6v3H54v2h7v3H50Z"/><path class="cls-1" d="M65,5V75H27.07109L15,62.929V5H65m0-5H15a5,5,0,0,0-5,5V65L25,80H65a5,5,0,0,0,5-5V5a5,5,0,0,0-5-5Z"/></svg>