<svg id="Layer_1" data-name="Layer 1" xmlns="http://www.w3.org/2000/svg" width="80" height="80" viewBox="0 0 80 80"><defs><style>.cls-1,.cls-2{fill:#e45785;}.cls-2{fill-rule:evenodd;}</style></defs><title>Image</title><path class="cls-1" d="M65,5V75H27.07109L15,62.929V5H65m0-5H15a5,5,0,0,0-5,5V65L25,80H65a5,5,0,0,0,5-5V5a5,5,0,0,0-5-5Z"/><polygon class="cls-2" points="25.137 39.85 29.825 44.444 36.138 34.496 42.389 40.733 51.065 28 60 50 20 50 25.137 39.85"/><path class="cls-2" d="M26.98448,33a4,4,0,1,1,4.01471-3.98484A4.00013,4.00013,0,0,1,26.98448,33Z"/></svg>