<svg id="Layer_1" data-name="Layer 1" xmlns="http://www.w3.org/2000/svg" width="80" height="80" viewBox="0 0 80 80"><defs><style>.cls-1{fill:#e5332a;}.cls-2{fill:#bfbfbf;}.cls-3{fill:#1d70b7;}</style></defs><title>Jar</title><path class="cls-1" d="M40.28754,37.77515s-2.61188-5.15674-2.5152-8.92481c.07141-2.69263,5.99408-5.35425,8.31909-9.21826C48.40936,15.76563,45.80072,12,45.80072,12a9.06276,9.06276,0,0,1-.96564,5.64819c-1.54632,2.87549-7.25677,4.56324-9.4787,9.51709C33.13635,32.12354,40.28754,37.77515,40.28754,37.77515Zm9.76989-15.66407s-8.89526,3.46936-8.89526,7.43311c0,3.96716,2.41663,5.25452,2.80335,6.54248.38671,1.29126-.67432,3.47144-.67432,3.47144s3.48022-2.47876,2.89624-5.35547c-.58136-2.87537-3.28864-3.76685-1.7392-6.63965C45.48224,25.63623,50.05743,22.11108,50.05743,22.11108Zm5.79883,32.38623a1.068,1.068,0,0,0-.26037-1.65478.72317.72317,0,0,1-.12384.99133c-.51435.52747-5.225,1.84912-12.76728,2.24427-7.53979.39916-15.72741-.72437-15.989-1.7168-.24969-.99,4.19354-1.78052,4.19354-1.78052-.51251.06482-6.70434.19556-6.90082,1.9165-.189,1.71558,2.70728,3.10352,14.3155,3.10352C49.92609,57.60083,55.02216,55.41992,55.85626,54.49731Zm-4.51208,3.89637c-5.09357,1.05749-20.55933.39123-20.55933.39123a58.12914,58.12914,0,0,0,21.52741.39795c5.48535-.97949,5.80389-3.70215,5.80389-3.70215S56.43762,57.33374,51.34418,58.39368Z"/><path class="cls-2" d="M65,5V75H27.07111L15,62.929V5H65m0-5H15a5,5,0,0,0-5,5V65L25,80H65a5,5,0,0,0,5-5V5a5,5,0,0,0-5-5Z"/><path class="cls-3" d="M39.3245,43.01335c9.17845-.33557,10.25771-2.10816,11.21584-2.959-5.31594,1.48505-19.43436,1.38779-19.53557.29868-.0928-1.091,4.35044-1.98383,4.35044-1.98383s-6.9591,0-7.54047,1.78493C27.23337,41.93592,31.10844,43.30818,39.3245,43.01335Z"/><path class="cls-3" d="M51.89268,38.56814s3.96618,0,4.35031,2.47624c.38685,2.47823-5.02525,6.14469-5.02525,6.14469s8.52383-1.75972,7.73008-6.24049C57.98219,35.49653,51.89268,38.56814,51.89268,38.56814Z"/><path class="cls-3" d="M42.21815,45.70415c-4.02611.46441-8.89282.09845-9.28212-.598-.37908-.694.67934-1.08845.67934-1.08845-4.83759,1.19141-2.19347,3.26985,3.47644,3.67031a31.04492,31.04492,0,0,0,10.28878-1.4889l1.67332-1.38647S45.2244,45.35809,42.21815,45.70415Z"/><path class="cls-3" d="M34.77889,49.145s-2.1936.06223-2.32057,1.25245c-.12955,1.18372.67935,1.78427,6.1053,1.65344,6.45784-.15817,7.53529-.94475,8.20014-1.51942l1.57482-1.21676a55.27273,55.27273,0,0,1-6.93813.78406c-2.40585.07192-6.6204.22862-6.81311-.23075A.58651.58651,0,0,1,34.77889,49.145Z"/></svg>