<svg id="Layer_1" data-name="Layer 1" xmlns="http://www.w3.org/2000/svg" width="80" height="80" viewBox="0 0 80 80"><defs><style>.cls-1{fill:#f8b133;}</style></defs><title>JavaScript</title><polygon class="cls-1" points="57 54 42 54 42 49 52 49 52 43 42 43 42 23 57 23 57 29 47 29 47 38 57 38 57 54"/><polygon class="cls-1" points="35 54 20 54 20 49 30 49 30 23 35 23 35 54"/><path class="cls-1" d="M65,5V75H27.07111L15,62.929V5H65m0-5H15a5,5,0,0,0-5,5V65L25,80H65a5,5,0,0,0,5-5V5a5,5,0,0,0-5-5Z"/></svg>