<svg id="Layer_1" data-name="Layer 1" xmlns="http://www.w3.org/2000/svg" width="80" height="80" viewBox="0 0 80 80"><defs><style>.cls-1{fill:#f25353;}.cls-2{fill:#fff;fill-rule:evenodd;}.cls-3{fill:#bfbfbf;}</style></defs><title>Malicious</title><circle class="cls-1" cx="40" cy="39" r="19"/><path class="cls-2" d="M49.10044,42.758a5.20225,5.20225,0,0,1-.15305,1.2561c.00588-.0872.01233-.1743.01233-.26288a3.43576,3.43576,0,0,0-3.356-3.55872,3.61835,3.61835,0,0,0-3.45106,3.71545,3.42342,3.42342,0,0,0,3.45106,3.55646,3.22956,3.22956,0,0,0,.71312-.10905,4.52016,4.52016,0,0,1-6.10488-2.1283,5.1363,5.1363,0,0,1-4.39878,2.937,4.85426,4.85426,0,0,1-2.28712-.47132,3.63706,3.63706,0,0,0,.50962.02067A3.89734,3.89734,0,0,0,37.715,43.79205a3.69064,3.69064,0,0,0-3.67941-3.75569,3.79865,3.79865,0,0,0-3.13612,1.7398,5.15365,5.15365,0,0,1,4.91362-3.827,4.89516,4.89516,0,0,1,.77665.06579,5.14234,5.14234,0,0,1-1.31852-3.45137,4.94508,4.94508,0,0,1,3.31535-4.73141,3.48061,3.48061,0,0,0,1.60713,6.47631,3.31013,3.31013,0,0,0,3.22885-3.3924,3.51971,3.51971,0,0,0-1.71231-3.04019A5.11863,5.11863,0,0,1,43.738,37.997a4.52559,4.52559,0,0,1,.71713-.06857A4.71877,4.71877,0,0,1,49.10044,42.758Zm-8.13481-3.19265c-.02285.00393-.0463.0059-.06923.00957l-.65419-1.19435L39.57338,39.592c-.04062-.00545-.08187-.00863-.12226-.01485.02758.03076.04959.06639.07642.09787l-.872,1.57935L41.81,41.24287,40.92223,39.622C40.93762,39.604,40.95,39.58319,40.96563,39.56533Z"/><path class="cls-3" d="M65,5V75H27.07111L15,62.929V5H65m0-5H15a5,5,0,0,0-5,5V65L25,80H65a5,5,0,0,0,5-5V5a5,5,0,0,0-5-5Z"/></svg>