<svg id="Layer_1" data-name="Layer 1" xmlns="http://www.w3.org/2000/svg" width="80" height="80" viewBox="0 0 80 80"><defs><style>.cls-1,.cls-2{fill:#f8b133;}.cls-1{fill-rule:evenodd;}</style></defs><title>Outlook</title><path class="cls-1" d="M56.42042,26H23.57955A4.47246,4.47246,0,0,0,19,30.32848v19.343A4.47246,4.47246,0,0,0,23.57955,54H56.42042A4.47248,4.47248,0,0,0,61,49.67152v-19.343A4.47248,4.47248,0,0,0,56.42042,26Zm.81,22.49505a1.54061,1.54061,0,0,1-2.09377,0L47.29624,41.0854l-6.39976,6.04886a1.54061,1.54061,0,0,1-2.09377,0L32.40255,41.085l-7.8408,7.41a1.54061,1.54061,0,0,1-2.09377,0,1.34566,1.34566,0,0,1,0-1.97984l7.8399-7.41-6.31726-5.9709a1.34567,1.34567,0,0,1,0-1.97985,1.54243,1.54243,0,0,1,2.09377,0L39.8496,44.16494,53.61481,31.15442a1.54243,1.54243,0,0,1,2.09377,0,1.34567,1.34567,0,0,1,0,1.97985l-6.31767,5.97129,7.83948,7.40965A1.34566,1.34566,0,0,1,57.23039,48.49505Z"/><path class="cls-2" d="M65,5V75H27.07111L15,62.929V5H65m0-5H15a5,5,0,0,0-5,5V65L25,80H65a5,5,0,0,0,5-5V5a5,5,0,0,0-5-5Z"/></svg>