<svg id="Layer_1" data-name="Layer 1" xmlns="http://www.w3.org/2000/svg" width="80" height="80" viewBox="0 0 80 80"><defs><style>.cls-1{fill:#ed7114;}</style></defs><title>Powerpoint</title><path class="cls-1" d="M50.191,30.88232a7.59321,7.59321,0,0,0-2.17678-2.8236,8.79422,8.79422,0,0,0-3.15913-1.56849A14.32743,14.32743,0,0,0,41.06026,26H28V54h7.16593V44.66663h5.89433q4.73868,0,7.33927-2.31372Q51,40.03955,51,35.01953A9.76352,9.76352,0,0,0,50.191,30.88232ZM42.794,38.196a4.40981,4.40981,0,0,1-2.81249.82349H35.16593V31.843h4.81562a4.16337,4.16337,0,0,1,2.79318.9021,3.45811,3.45811,0,0,1,1.05946,2.7843A3.19785,3.19785,0,0,1,42.794,38.196Z"/><path class="cls-1" d="M65,5V75H27.07108L15,62.929V5H65m0-5H15a5,5,0,0,0-5,5V65L25,80H65a5,5,0,0,0,5-5V5a5,5,0,0,0-5-5Z"/></svg>