<svg id="Layer_1" data-name="Layer 1" xmlns="http://www.w3.org/2000/svg" width="80" height="80" viewBox="0 0 80 80"><defs><style>.cls-1{fill:#f7b614;}.cls-2{fill:#146093;}.cls-3{fill:#bfbfbf;}</style></defs><title>Python</title><path id="path1950" class="cls-1" d="M51,29v4a6.41143,6.41143,0,0,1-6.22372,6H35.652A4.55841,4.55841,0,0,0,31,43.53705v8.99148c0,2.53728,2.194,4.02969,4.655,4.75762a15.4929,15.4929,0,0,0,9.29916,0C47.298,56.60371,50,55.70177,50,53V49H41V47H54c2.5335,0,3.543-2.38105,4.42406-5.18745.91012-2.88915.66616-4.43018-.20524-8.13642C57.59271,31.00764,56.39688,29,53.86016,29ZM45.5,52A1.5,1.5,0,1,1,44,53.49541,1.497,1.497,0,0,1,45.5,52Z"/><path id="path1950-2" data-name="path1950" class="cls-2" d="M29,47V43a6.41143,6.41143,0,0,1,6.22372-6H44.348A4.55841,4.55841,0,0,0,49,32.463V23.47147c0-2.53728-2.194-4.02969-4.655-4.75762a15.4929,15.4929,0,0,0-9.29916,0C32.702,19.39629,30,20.29823,30,23v4h9v2H26c-2.5335,0-3.543,2.381-4.42406,5.18745-.91012,2.88915-.66616,4.43018.20524,8.13642C22.40729,44.99236,23.60312,47,26.13984,47Zm5.5-23A1.5,1.5,0,1,1,36,22.50459,1.497,1.497,0,0,1,34.5,24Z"/><path class="cls-3" d="M65,5V75H27.07111L15,62.929V5H65m0-5H15a5,5,0,0,0-5,5V65L25,80H65a5,5,0,0,0,5-5V5a5,5,0,0,0-5-5Z"/></svg>