<svg id="Layer_1" data-name="Layer 1" xmlns="http://www.w3.org/2000/svg" width="80" height="80" viewBox="0 0 80 80"><defs><style>.cls-1{fill:#f8b133;}</style></defs><title>Spreadsheet</title><rect class="cls-1" x="21" y="48" width="38" height="3"/><rect class="cls-1" x="21" y="41" width="38" height="3"/><rect class="cls-1" x="21" y="34" width="38" height="3"/><rect class="cls-1" x="21" y="27" width="38" height="3"/><rect class="cls-1" x="21" y="20" width="38" height="3"/><rect class="cls-1" x="7" y="34" width="31" height="3" transform="translate(-13 58) rotate(-90)"/><rect class="cls-1" x="16" y="34" width="31" height="3" transform="translate(-4 67) rotate(-90)"/><rect class="cls-1" x="42" y="34" width="31" height="3" transform="translate(22 93) rotate(-90)"/><path class="cls-1" d="M65,5V75H27.07108L15,62.929V5H65m0-5H15a5,5,0,0,0-5,5V65L25,80H65a5,5,0,0,0,5-5V5a5,5,0,0,0-5-5Z"/></svg>