<svg id="Layer_1" data-name="Layer 1" xmlns="http://www.w3.org/2000/svg" width="80" height="80" viewBox="0 0 80 80"><defs><style>.cls-1{fill:#bfbfbf;}</style></defs><title>Generic txt</title><path class="cls-1" d="M65,5V75H27.07108L15,62.929V5H65m0-5H15a5,5,0,0,0-5,5V65L25,80H65a5,5,0,0,0,5-5V5a5,5,0,0,0-5-5Z"/><path class="cls-1" d="M41.47658,39.26279l-4.186-6.09038H41.225l2.15591,3.98832,2.28168-3.98832H49.4713l-4.15013,6.09038L49.84863,46H45.78838l-2.40745-4.27591L40.758,46H36.91322Z"/><polygon class="cls-1" points="25 33 25 36 29 36 29 46 32 46 32 36 36 36 36 33 25 33"/><polygon class="cls-1" points="51 33 51 36 55 36 55 46 58 46 58 36 62 36 62 33 51 33"/><rect class="cls-1" x="20" y="43" width="3" height="3"/></svg>