<svg id="Layer_1" data-name="Layer 1" xmlns="http://www.w3.org/2000/svg" width="80" height="80" viewBox="0 0 80 80"><defs><style>.cls-1,.cls-2{fill:#e45785;}.cls-1{fill-rule:evenodd;}</style></defs><title>Video</title><path class="cls-1" d="M50.53192,23H29.46808A3.46809,3.46809,0,0,0,26,26.468V47.53186A3.46812,3.46812,0,0,0,29.46808,51H50.53192A3.46812,3.46812,0,0,0,54,47.53186V26.468A3.46809,3.46809,0,0,0,50.53192,23ZM36,45V29l11,8Z"/><path class="cls-2" d="M65,5V75H27.07109L15,62.929V5H65m0-5H15a5,5,0,0,0-5,5V65L25,80H65a5,5,0,0,0,5-5V5a5,5,0,0,0-5-5Z"/></svg>