<svg id="Layer_1" data-name="Layer 1" xmlns="http://www.w3.org/2000/svg" width="80" height="80" viewBox="0 0 80 80"><defs><style>.cls-1{fill:#f8b133;}.cls-1,.cls-2{fill-rule:evenodd;}.cls-2,.cls-3{fill:#fff;}.cls-4{fill:#bfbfbf;}</style></defs><title>Warning</title><polygon class="cls-1" points="40 24 22.353 54 57.647 54 40 24"/><path class="cls-2" d="M40.11765,46a1.88236,1.88236,0,1,1-1.88236,1.88235A1.88239,1.88239,0,0,1,40.11765,46Z"/><rect class="cls-3" x="38" y="32" width="4" height="12" rx="1.7647" ry="1.7647"/><path class="cls-4" d="M65,5V75H27.07108L15,62.929V5H65m0-5H15a5,5,0,0,0-5,5V65L25,80H65a5,5,0,0,0,5-5V5a5,5,0,0,0-5-5Z"/></svg>