<svg id="Layer_1" data-name="Layer 1" xmlns="http://www.w3.org/2000/svg" width="80" height="80" viewBox="0 0 80 80"><defs><style>.cls-1{fill:#0cb3ee;}</style></defs><title>Windows</title><polygon class="cls-1" points="59 36 59 18.393 39 21.343 39 36 59 36"/><polygon class="cls-1" points="36 21.551 21 23.693 21 36 36 36 36 21.551"/><polygon class="cls-1" points="21 39 21 51.463 36 53.63 36 39 21 39"/><polygon class="cls-1" points="39 53.84 59 56.824 59 39 39 39 39 53.84"/><path class="cls-1" d="M65,5V75H27.07108L15,62.929V5H65m0-5H15a5,5,0,0,0-5,5V65L25,80H65a5,5,0,0,0,5-5V5a5,5,0,0,0-5-5Z"/></svg>