<svg id="Layer_1" data-name="Layer 1" xmlns="http://www.w3.org/2000/svg" width="48" height="48" viewBox="0 0 48 48"><defs><style>.cls-1{fill:#e8f1ff;}.cls-2{fill:none;stroke:#e8f1ff;stroke-miterlimit:10;stroke-width:2px;}</style></defs><title>Adware</title><path class="cls-1" d="M42,9V39H5V9H42m2-2H3V41H44V7Z"/><line class="cls-2" x1="4" y1="17" x2="44" y2="17"/><circle class="cls-1" cx="30.5" cy="12.5" r="1.5"/><circle class="cls-1" cx="34.5" cy="12.5" r="1.5"/><circle class="cls-1" cx="38.5" cy="12.5" r="1.5"/><path class="cls-1" d="M24.5,22A6.5,6.5,0,1,1,18,28.5,6.50736,6.50736,0,0,1,24.5,22m0-2A8.5,8.5,0,1,0,33,28.5,8.5,8.5,0,0,0,24.5,20Z"/><line class="cls-2" x1="19" y1="23" x2="29.5" y2="33.5"/></svg>