<svg id="Layer_1" data-name="Layer 1" xmlns="http://www.w3.org/2000/svg" width="48" height="48" viewBox="0 0 48 48"><defs><style>.cls-1{fill:#e8f1ff;}</style></defs><title>Banker</title><path class="cls-1" d="M28.65743,31.82878a3.74441,3.74441,0,0,0-1.06837-2.8728,4.74177,4.74177,0,0,0-2.64142-1.07247l-.73811-.11487V24.43637a3.91162,3.91162,0,0,1,2.38915.91922l1.70923-1.66607a5.717,5.717,0,0,0-3.82644-1.57046V20.41461H22.51983v1.72357c-2.52519.26812-4.04006,1.89608-4.04006,4.09838a3.52961,3.52961,0,0,0,.99052,2.66205,4.67182,4.67182,0,0,0,2.68049,1.149l.62146.07662v3.4664a4.46538,4.46538,0,0,1-3.08833-1.14909l-1.748,1.72371a6.269,6.269,0,0,0,4.58394,1.80019v2.06831h1.96164V35.88878C26.90941,35.6014,28.65743,34.16521,28.65743,31.82878Zm-2.64156.07649c0,.93847-.64086,1.51295-1.80634,1.64708v-3.294a2.25162,2.25162,0,0,1,1.379.49785A1.50617,1.50617,0,0,1,26.01587,31.90527Zm-3.24363-4.2515a2.30632,2.30632,0,0,1-1.282-.53623,1.3066,1.3066,0,0,1-.40784-.97672,1.70957,1.70957,0,0,1,1.68983-1.68533Z"/><path class="cls-1" d="M27.93719,5.43652l-3.01635,5.52369a1.99987,1.99987,0,0,0,.27633,2.3048c11.75675,12.915,16.15952,23.62842,14.43232,27.53638-.24033.54382-.97165,2.19849-5.10993,2.19849h-21.602c-3.14361,0-4.05231-1.22119-4.46234-2.13977-2.20077-4.93018,3.66812-17.95093,12.55948-27.86438a1.99989,1.99989,0,0,0,.1048-2.5437L18.183,6.57935l9.75421-1.14283M31.54651,3h0Zm0,0-17.071,2,5.0503,6.6604C8.34039,24.13159-.84207,44.99988,12.91754,44.99988h21.602c13.99274,0,6.61759-17.19556-7.84341-33.08118L31.54651,3Z"/></svg>