<svg id="Layer_1" data-name="Layer 1" xmlns="http://www.w3.org/2000/svg" width="48" height="48" viewBox="0 0 48 48"><defs><style>.cls-1{fill:none;stroke:#e8f1ff;stroke-miterlimit:10;stroke-width:2px;}.cls-2{fill:#e8f1ff;}</style></defs><title>Bot</title><path class="cls-1" d="M41.5,23H40V18H8v5H6.5A2.50735,2.50735,0,0,0,4,25.5v1A2.50735,2.50735,0,0,0,6.5,29H8V42H40V29h1.5A2.50735,2.50735,0,0,0,44,26.5v-1A2.50735,2.50735,0,0,0,41.5,23Z"/><circle class="cls-1" cx="13" cy="9" r="3"/><circle class="cls-1" cx="35" cy="9" r="3"/><line class="cls-1" x1="13" y1="12" x2="13" y2="18"/><line class="cls-1" x1="35" y1="12" x2="35" y2="18"/><line class="cls-1" x1="17" y1="35" x2="32" y2="35"/><circle class="cls-2" cx="19" cy="26" r="2"/><circle class="cls-2" cx="30" cy="26" r="2"/></svg>