<svg id="Layer_1" data-name="Layer 1" xmlns="http://www.w3.org/2000/svg" width="48" height="48" viewBox="0 0 48 48"><defs><style>.cls-1,.cls-2{fill:#e8f1ff;}.cls-1,.cls-3,.cls-5{fill-rule:evenodd;}.cls-3,.cls-4,.cls-5{fill:none;stroke:#e8f1ff;stroke-width:2px;}.cls-3,.cls-5{stroke-miterlimit:10;}.cls-3{stroke-dasharray:2 2;}.cls-4{stroke-linecap:round;stroke-linejoin:round;}</style></defs><title>Evader</title><path class="cls-1" d="M17,3H40v8H17Z"/><polygon class="cls-2" points="21 20.088 21 28.029 28 32 35 28.029 35 20.088 28 16.118 21 20.088"/><path class="cls-2" d="M43,38v4H34V38h9m2-2H32v8H45V36Z"/><path class="cls-3" d="M4,22V34.03125A5.96875,5.96875,0,0,0,9.96875,40H26"/><polyline class="cls-4" points="23 36 27 40 23 44"/><path class="cls-5" d="M17,7H9.96875A5.96875,5.96875,0,0,0,4,12.96875V22"/></svg>