<svg xmlns="http://www.w3.org/2000/svg" width="42" height="42" viewBox="0 0 42 42">
  <defs>
    <style>
      .cls-1 {
        fill: #e8f1ff;
        fill-rule: evenodd;
      }
    </style>
  </defs>
  <path id="Spyware" class="cls-1" d="M161,426.988L162.615,424h36.77L201,426.988H161ZM174.538,412c4.38,0,3.21,1.574,6.462,1.574S183.17,412,187.461,412s6.462,11.016,6.462,11.016H168.077S170.7,412,174.538,412ZM181,428c0,5.022,0,9.13,0,14.016a18.446,18.446,0,0,1-14-6c-0.922-.9-1-3.165-1-4.009A8.717,8.717,0,0,1,167,428h14Zm-5.993,6.881c1.655,0.38,3-.152,3-1.19s-1.342-2.185-3-2.566-3,.153-3,1.19S173.352,434.5,175.007,434.881ZM196,432c0,0.842-.074,3.1-1,4a18.472,18.472,0,0,1-14,6V428h14A8.683,8.683,0,0,1,196,432Zm-9.007-.884c-1.655.38-3,1.526-3,2.561s1.342,1.566,3,1.187,3-1.526,3-2.561S188.648,430.737,186.993,431.116Z" transform="translate(-160 -406)"/>
</svg>
