<svg id="Layer_1" data-name="Layer 1" xmlns="http://www.w3.org/2000/svg" width="48" height="48" viewBox="0 0 48 48"><defs><style>.cls-1{fill:#e8f1ff;fill-rule:evenodd;}.cls-2,.cls-3{fill:none;stroke:#e8f1ff;stroke-miterlimit:10;stroke-width:2px;}.cls-2{stroke-linecap:round;}</style></defs><title>Phishing</title><path class="cls-1" d="M25,3.5a2,2,0,1,1-2,2A2,2,0,0,1,25,3.5Z"/><line class="cls-2" x1="4" y1="44" x2="44" y2="44"/><path class="cls-3" d="M20,13H6a2,2,0,0,0-2,2V37a2.00006,2.00006,0,0,0,2,2H42a2.00006,2.00006,0,0,0,2-2V15a2,2,0,0,0-2-2H30"/><polygon class="cls-1" points="15 20 15 25 19 25 15 20"/><path class="cls-3" d="M16,23v1.75a4.51323,4.51323,0,0,0,4.5,4.5h0a4.51323,4.51323,0,0,0,4.5-4.5V6"/></svg>