<svg id="Layer_1" data-name="Layer 1" xmlns="http://www.w3.org/2000/svg" width="48" height="48" viewBox="0 0 48 48"><defs><style>.cls-1{fill:#e8f1ff;}.cls-2,.cls-3{fill:none;stroke:#e8f1ff;stroke-width:2px;}.cls-2{stroke-miterlimit:10;}.cls-3{stroke-linecap:round;stroke-linejoin:round;}</style></defs><title>Ransomware</title><path class="cls-1" d="M42,9a1.00114,1.00114,0,0,1,1,1V32a1.00114,1.00114,0,0,1-1,1H6a1.00114,1.00114,0,0,1-1-1V10A1.00114,1.00114,0,0,1,6,9H42m0-2H6a3,3,0,0,0-3,3V32a3,3,0,0,0,3,3H42a3,3,0,0,0,3-3V10a3,3,0,0,0-3-3Z"/><line class="cls-2" x1="24" y1="42" x2="24" y2="34"/><line class="cls-3" x1="34.37037" y1="42" x2="12.33333" y2="42"/><path class="cls-1" d="M18.1,24.353c-.01,2.567.33,2.718,2.22,3.335,3.84,1.254,2.33-1.633,3.68005-1.633s-.17,2.887,3.68005,1.633c1.89-.617,2.23-.768,2.22-3.335a22.42727,22.42727,0,0,1-11.8.00006Z"/><path class="cls-1" d="M28.92993,18.582c-.3-3.634-1.19995-4.583-2.17-4.583-1.06006,0-2.21,1.133-2.76,1.133s-1.7-1.134-2.76-1.134c-1.12,0-2.14,1.262-2.27,6.449l-.67-1.648c-1.72.55-2.81005,1.345-2.81005,2.229,0,1.659,3.81005,3,8.51,3s8.5-1.344,8.5-3C32.5,20.019,31.09,19.127,28.93005,18.582Z"/></svg>