<svg id="Layer_1" data-name="Layer 1" xmlns="http://www.w3.org/2000/svg" width="48" height="48" viewBox="0 0 48 48"><defs><style>.cls-1,.cls-3{fill:none;stroke:#e8f1ff;stroke-miterlimit:10;stroke-width:2px;}.cls-1,.cls-2{fill-rule:evenodd;}.cls-2,.cls-4{fill:#e8f1ff;}</style></defs><title>Rootkit</title><path class="cls-1" d="M18.25,34H11a2,2,0,0,1-2-2V12a2,2,0,0,1,2-2H31a2,2,0,0,1,2,2v8"/><path class="cls-2" d="M42.96649,34.08508a10.69882,10.69882,0,0,1-3.35675-2.89135c-1.40539-1.9032-.44147-2.57581-1.54925-4.3368-1.10767-1.76123-2.44959-3.78051-6.19709-3.85522a6.96787,6.96787,0,0,0-6.7135,4.33691c-.78845,1.95191-.23578,2.60425-1.291,4.57788a9.8545,9.8545,0,0,1-3.09858,3.37329c-.61291.48365-1.05847,1.39344-.51641,1.9275s2.18164.40893,3.09857-.48169a1.83684,1.83684,0,0,1,2.32385-.48194,3.00955,3.00955,0,0,1,1.0329,1.92749c0,1.0481-1.03064,2.52832-1.0329,3.37329A1.6545,1.6545,0,0,0,27.47382,43a1.76849,1.76849,0,0,0,1.54925-1.92749c0-.96143-.63385-1.93726.7746-2.89136a3.22488,3.22488,0,0,1,2.32385-.7229,5.11394,5.11394,0,0,1,3.35675,1.4458c.86163.96875.93463,2.16309,1.54932,2.65039.61487.48706.5683.72,1.54931.72266a1.38977,1.38977,0,0,0,1.54932-1.44556c.02832-.57763-.66589-1.3761-1.54932-2.16858a1.82185,1.82185,0,0,1,0-2.65026,2.47,2.47,0,0,1,1.80756-.48194c.80811.07569,1.61774.48194,2.32391.48194s1.31391-.40125,1.291-.96375S42.96649,34.08508,42.96649,34.08508Zm-13.51159-2.047C27.58942,32.03809,27.26874,29,27.26874,29a3.43528,3.43528,0,0,0,1.63965,1.0127,4.18726,4.18726,0,0,0,2.18628.3374A1.47655,1.47655,0,0,1,29.4549,32.03809Zm5.01208,0a1.47651,1.47651,0,0,1-1.63965-1.688,4.1873,4.1873,0,0,0,2.18628-.3374A3.43636,3.43636,0,0,0,36.65326,29S36.3324,32.03809,34.467,32.03809Z"/><line class="cls-3" x1="11" y1="4" x2="11" y2="8"/><line class="cls-3" x1="7" y1="12" x2="3" y2="12"/><line class="cls-3" x1="7" y1="17" x2="3" y2="17"/><line class="cls-3" x1="7" y1="22" x2="3" y2="22"/><line class="cls-3" x1="39" y1="12" x2="35" y2="12"/><line class="cls-3" x1="39" y1="17" x2="35" y2="17"/><line class="cls-3" x1="7" y1="27" x2="3" y2="27"/><line class="cls-3" x1="7" y1="32" x2="3" y2="32"/><line class="cls-3" x1="16" y1="4" x2="16" y2="8"/><line class="cls-3" x1="21" y1="4" x2="21" y2="8"/><line class="cls-3" x1="26" y1="4" x2="26" y2="8"/><line class="cls-3" x1="31" y1="4" x2="31" y2="8"/><line class="cls-3" x1="11" y1="37" x2="11" y2="41"/><line class="cls-3" x1="16" y1="37" x2="16" y2="41"/><rect class="cls-4" x="15" y="13" width="2" height="2"/><rect class="cls-4" x="12" y="21" width="2" height="2"/><rect class="cls-4" x="12" y="16" width="2" height="2"/><rect class="cls-4" x="12" y="26" width="2" height="2"/><rect class="cls-4" x="15" y="29" width="2" height="2"/><rect class="cls-4" x="20" y="13" width="2" height="2"/><rect class="cls-4" x="25" y="13" width="2" height="2"/><rect class="cls-4" x="28" y="16" width="2" height="2"/></svg>