<svg xmlns="http://www.w3.org/2000/svg" width="42" height="42" viewBox="0 0 42 42">
  <defs>
    <style>
      .cls-1 {
        fill: #2d3e57;
        fill-rule: evenodd;
      }
    </style>
  </defs>
  <path id="snmp_trap_" data-name="snmp_trap " class="cls-1" d="M162.014,226.991v-25.98h37.992v25.98H162.014ZM198,203H164v22h34V203Zm-22,8a5,5,0,0,1,10,0v1h3v10H173V212h3v-1Zm4.143,9.056V221h0.915v-0.973a1.918,1.918,0,0,0,1.947-1.842,1.674,1.674,0,0,0-.5-1.3,2.247,2.247,0,0,0-1.232-.486l-0.344-.052v-1.511a1.853,1.853,0,0,1,1.114.416l0.8-.755a2.7,2.7,0,0,0-1.784-.713V213h-0.915v0.782a1.876,1.876,0,0,0-1.883,1.859,1.575,1.575,0,0,0,.462,1.207,2.2,2.2,0,0,0,1.249.521l0.29,0.035v1.572a2.116,2.116,0,0,1-1.44-.521l-0.815.782A2.968,2.968,0,0,0,180.143,220.056ZM178,212h6v-1a3,3,0,0,0-6,0v1Zm3.773,6.215a0.779,0.779,0,0,1-.842.747v-1.494a1.067,1.067,0,0,1,.643.226A0.671,0.671,0,0,1,181.773,218.215Zm-2.3-2.614a0.786,0.786,0,0,1,.788-0.765v1.451a1.088,1.088,0,0,1-.6-0.244A0.581,0.581,0,0,1,179.473,215.6ZM178,228h6v2.986h3.013V233H174.988v-2.013H178V228Z" transform="translate(-160 -196)"/>
</svg>
