<svg id="Layer_1" data-name="Layer 1" xmlns="http://www.w3.org/2000/svg" width="48" height="48" viewBox="0 0 48 48"><defs><style>.cls-1{fill:#e8f1ff;}.cls-2{fill:none;stroke:#e8f1ff;stroke-miterlimit:10;stroke-width:2px;}</style></defs><title>Spreading</title><path class="cls-1" d="M24,17a7,7,0,1,1-7,7,7.00791,7.00791,0,0,1,7-7m0-2a9,9,0,1,0,9,9,9,9,0,0,0-9-9Z"/><path class="cls-1" d="M24,22a2,2,0,1,1-2,2,2.00228,2.00228,0,0,1,2-2m0-2a4,4,0,1,0,4,4,4,4,0,0,0-4-4Z"/><path class="cls-1" d="M24,39a2,2,0,1,1-2,2,2.00228,2.00228,0,0,1,2-2m0-2a4,4,0,1,0,4,4,4,4,0,0,0-4-4Z"/><line class="cls-2" x1="24" y1="32" x2="24" y2="38"/><path class="cls-1" d="M24,5a2,2,0,1,1-2,2,2.00228,2.00228,0,0,1,2-2m0-2a4,4,0,1,0,4,4,4,4,0,0,0-4-4Z"/><line class="cls-2" x1="24" y1="16" x2="24" y2="10"/><path class="cls-1" d="M41,22a2,2,0,1,1-2,2,2.00228,2.00228,0,0,1,2-2m0-2a4,4,0,1,0,4,4,4,4,0,0,0-4-4Z"/><line class="cls-2" x1="32" y1="24" x2="38" y2="24"/><path class="cls-1" d="M7,22a2,2,0,1,1-2,2,2.00228,2.00228,0,0,1,2-2m0-2a4,4,0,1,0,4,4,4,4,0,0,0-4-4Z"/><line class="cls-2" x1="16" y1="24" x2="10" y2="24"/><path class="cls-1" d="M11.97919,34.02075a2.00007,2.00007,0,1,1-1.41422.58582,1.98723,1.98723,0,0,1,1.41422-.58582m0-2a4.00006,4.00006,0,1,0,2.82843,1.17163,3.98774,3.98774,0,0,0-2.82843-1.17163Z"/><line class="cls-2" x1="18.34315" y1="29.65685" x2="14.10051" y2="33.89949"/><path class="cls-1" d="M36.02081,9.97913a2.00006,2.00006,0,1,1-1.41421.58581,1.98676,1.98676,0,0,1,1.41421-.58581m0-2a4.00006,4.00006,0,1,0,2.82843,1.17163,3.98721,3.98721,0,0,0-2.82843-1.17163Z"/><line class="cls-2" x1="29.65685" y1="18.34315" x2="33.89949" y2="14.10051"/><path class="cls-1" d="M36.02081,34.02075a2.00007,2.00007,0,1,1-1.41421.58582,1.98727,1.98727,0,0,1,1.41421-.58582m0-2a4.00006,4.00006,0,1,0,2.82843,1.17163,3.98775,3.98775,0,0,0-2.82843-1.17163Z"/><line class="cls-2" x1="29.65685" y1="29.65685" x2="33.89949" y2="33.89949"/><path class="cls-1" d="M11.97919,9.97913a2.00006,2.00006,0,1,1-1.41422.58581,1.98672,1.98672,0,0,1,1.41422-.58581m0-2a4.00006,4.00006,0,1,0,2.82843,1.17163,3.98719,3.98719,0,0,0-2.82843-1.17163Z"/><line class="cls-2" x1="18.34315" y1="18.34315" x2="14.10051" y2="14.10051"/></svg>