<svg id="Layer_1" data-name="Layer 1" xmlns="http://www.w3.org/2000/svg" width="48" height="48" viewBox="0 0 48 48"><defs><style>.cls-1,.cls-2{fill:none;stroke:#e8f1ff;stroke-width:2px;}.cls-1{stroke-miterlimit:10;}.cls-2{stroke-linecap:round;stroke-linejoin:round;}</style></defs><title>Spyware</title><path class="cls-1" d="M14.27045,23.48853c-.00684,4.10742.54992,4.34863,3.64917,5.33569,6.30285,2.00659,3.81274-2.61328,6.03326-2.61328s-.26965,4.61987,6.0332,2.61328c3.09925-.98706,3.65607-1.22852,3.64923-5.33569a34.80087,34.80087,0,0,1-9.68218,1.26416A34.80359,34.80359,0,0,1,14.27045,23.48853Zm17.7677-11.13111C31.542,6.54358,30.072,5.02515,28.48187,5.02515c-1.73773,0-3.619,1.813-4.52954,1.813-.91,0-2.79236-1.81469-4.53052-1.81494-1.83355-.00048-3.507-.82934-3.7116,7.46961l-1.10261.21191C11.77875,13.58362,10,14.85583,10,16.27087c0,1.40406,1.76044,2.66321,4.54993,3.54139l-.00373.00573c.08667.02722.18189.05115.27057.07776.1593.04761.32007.09424.4856.13941.17608.04809.35669.09375.53949.13891.1698.04175.33978.08338.5152.12268.19268.04309.39074.08338.5899.12342.1767.0354.35236.071.53387.10376.21.03808.42579.07226.64191.10644.18244.02905.36292.05884.5495.08521.22724.032.46063.05932.69373.0874.18463.02222.36663.0459.55468.06543.2522.02624.51093.04663.76893.06811.17706.01465.35083.03174.53039.04407.29218.0199.59082.0332.88922.04675.15338.007.30347.01734.45838.02271q.68389.02307,1.38556.02392.70165,0,1.38549-.02392c.155-.00537.30524-.01575.45874-.02271.29828-.01367.59668-.02685.88868-.04675.18017-.01233.35449-.02966.5321-.04431.25738-.02124.51538-.04163.767-.06775.18738-.01941.36859-.04321.55249-.06531.23449-.02807.46917-.05566.69781-.08789.18457-.02588.3631-.05566.54364-.08423.21808-.03466.43585-.06909.64765-.10742.17944-.03247.353-.06763.52783-.10266.20184-.0404.40246-.08118.59772-.125.1715-.03845.33776-.079.504-.12.18775-.04615.373-.09314.55365-.14246.1604-.04382.31629-.089.47083-.13513.09143-.02735.18945-.052.27881-.08008l-.00385-.0061c2.78955-.87818,4.55005-2.13721,4.55005-3.54139C37.9057,14.65613,35.58813,13.22852,32.03815,12.35742Z"/><path class="cls-2" d="M11.84519,31l2.15367,2.84038-3.121-1.37124L5.461,34.13067S3.99987,37.7311,4,39.009c.00076,5.65464,40,5.65464,40,0,0-1.27844-1.461-4.87835-1.461-4.87835l-5.417-1.66153-3.12073,1.37124L36.15481,31"/></svg>