<svg id="Layer_1" data-name="Layer 1" xmlns="http://www.w3.org/2000/svg" width="48" height="48" viewBox="0 0 48 48"><defs><style>.cls-1,.cls-4{fill:none;stroke:#e8f1ff;stroke-linecap:round;stroke-width:2px;}.cls-1{stroke-miterlimit:10;}.cls-1,.cls-3{fill-rule:evenodd;}.cls-2,.cls-3{fill:#e8f1ff;}.cls-4{stroke-linejoin:round;}</style></defs><title>Trojan - Bot</title><path class="cls-1" d="M12,30V23s-4.29227-.24192-4.29227,2.29393S4.00444,29.923,4.00444,29.923V23.44215s-.37266-5.55481,5.71377-5.55481c6.08619,0,15.23628-2.77747,15.23628-2.77747S31.479,3.9999,38,3.9999c4,0,5,1,5,1l1,12.88744s-1.111,2.77747-2.85683.9257C40.11508,17.72256,37,14,37,14V30"/><path class="cls-2" d="M11.99994,34.81812A3.18188,3.18188,0,1,1,8.81818,38a3.18547,3.18547,0,0,1,3.18176-3.18188m0-1.81824A5.00012,5.00012,0,1,0,17,38a5.00013,5.00013,0,0,0-5.00006-5.00012Z"/><path class="cls-3" d="M12,37a1,1,0,1,1-1,1A1,1,0,0,1,12,37Z"/><path class="cls-2" d="M36.99994,34.81812A3.18188,3.18188,0,1,1,33.81818,38a3.18547,3.18547,0,0,1,3.18176-3.18188m0-1.81824A5.00012,5.00012,0,1,0,42,38a5.00013,5.00013,0,0,0-5.00006-5.00012Z"/><path class="cls-3" d="M37,37a1,1,0,1,1-1,1A1,1,0,0,1,37,37Z"/><polyline class="cls-4" points="17 30 20 27 29 27 32 30"/></svg>