<svg xmlns="http://www.w3.org/2000/svg" width="42" height="42" viewBox="0 0 42 42">
  <defs>
    <style>
      .cls-1 {
        fill: #2d3e57;
        fill-rule: evenodd;
      }
    </style>
  </defs>
  <path id="Spreading" class="cls-1" d="M200.5,773a3.489,3.489,0,0,1-3.45-3.006h-5.074a8.429,8.429,0,0,1-2.154,5.129l2.609,2.609a3.5,3.5,0,1,1-.7.7l-2.609-2.609a8.428,8.428,0,0,1-5.129,2.153v5.075a3.5,3.5,0,1,1-.988,0v-5.075a8.428,8.428,0,0,1-5.129-2.153l-2.609,2.609a3.5,3.5,0,1,1-.7-0.7l2.609-2.609a8.429,8.429,0,0,1-2.154-5.129H169.95a3.5,3.5,0,1,1,0-.988h5.074a8.429,8.429,0,0,1,2.154-5.129l-2.609-2.609a3.5,3.5,0,1,1,.7-0.7l2.609,2.609a8.428,8.428,0,0,1,5.129-2.153V755.95a3.5,3.5,0,1,1,.988,0v5.075a8.428,8.428,0,0,1,5.129,2.153l2.609-2.609a3.5,3.5,0,1,1,.7.7l-2.609,2.609a8.429,8.429,0,0,1,2.154,5.129h5.074A3.493,3.493,0,1,1,200.5,773Zm-17-10a6.5,6.5,0,1,0,6.5,6.5A6.5,6.5,0,0,0,183.5,763Zm0,10a3.5,3.5,0,1,1,3.5-3.5A3.5,3.5,0,0,1,183.5,773Z" transform="translate(-162.5 -748.5)"/>
</svg>
