<svg id="Layer_1" data-name="Layer 1" xmlns="http://www.w3.org/2000/svg" width="48" height="48" viewBox="0 0 48 48"><defs><style>.cls-1{fill:#f24444;}</style></defs><title>Risk 5</title><path class="cls-1" d="M40,5a3.00342,3.00342,0,0,1,3,3V40a3.00342,3.00342,0,0,1-3,3H8a3.00342,3.00342,0,0,1-3-3V8A3.00342,3.00342,0,0,1,8,5H40m0-2H8A5,5,0,0,0,3,8V40a5,5,0,0,0,5,5H40a5,5,0,0,0,5-5V8a5,5,0,0,0-5-5Z"/><path class="cls-1" d="M24.43262,21.11816a6.88976,6.88976,0,0,1,4.94384,1.74317,6.26583,6.26583,0,0,1,1.83838,4.77539,6.94236,6.94236,0,0,1-2.21191,5.52246,9.32419,9.32419,0,0,1-6.32813,1.93359,12.39445,12.39445,0,0,1-5.77148-1.15722V30.02441a11.93308,11.93308,0,0,0,2.69531,1.00293,11.87968,11.87968,0,0,0,2.915.38868q4.1455,0,4.14551-3.39844,0-3.2373-4.292-3.23731a10.65288,10.65288,0,0,0-1.71387.15332,12.52847,12.52847,0,0,0-1.52344.33008l-1.80175-.96679.80566-10.91309H29.75v3.83789H22.10352l-.39551,4.2041.51269-.10254A10.08311,10.08311,0,0,1,24.43262,21.11816Z"/></svg>