<svg id="Layer_1" data-name="Layer 1" xmlns="http://www.w3.org/2000/svg" width="48" height="48" viewBox="0 0 48 48"><defs><style>.cls-1{fill:#e84e33;}</style></defs><title>Risk 4</title><path class="cls-1" d="M40,5a3.00342,3.00342,0,0,1,3,3V40a3.00342,3.00342,0,0,1-3,3H8a3.00342,3.00342,0,0,1-3-3V8A3.00342,3.00342,0,0,1,8,5H40m0-2H8A5,5,0,0,0,3,8V40a5,5,0,0,0,5,5H40a5,5,0,0,0,5-5V8a5,5,0,0,0-5-5Z"/><path class="cls-1" d="M32.09375,30.36133H29.51563V34.7998H25.0918V30.36133H15.95117V27.21191l9.38965-13.82812h4.17481V26.8457h2.57812Zm-7.002-3.51563V23.21289q0-.90821.07324-2.63672t.11719-2.00683H25.165a16.3365,16.3365,0,0,1-1.30371,2.34375L19.93555,26.8457Z"/></svg>