<svg id="Layer_1" data-name="Layer 1" xmlns="http://www.w3.org/2000/svg" width="48" height="48" viewBox="0 0 48 48"><defs><style>.cls-1{fill:#56b40a;}</style></defs><title>Risk 1</title><path class="cls-1" d="M40,5a3.00342,3.00342,0,0,1,3,3V40a3.00342,3.00342,0,0,1-3,3H8a3.00342,3.00342,0,0,1-3-3V8A3.00342,3.00342,0,0,1,8,5H40m0-2H8A5,5,0,0,0,3,8V40a5,5,0,0,0,5,5H40a5,5,0,0,0,5-5V8a5,5,0,0,0-5-5Z"/><path class="cls-1" d="M27.83105,34.7998H23.30469V22.40723l.04394-2.03614.07325-2.22656q-1.12794,1.12793-1.56739,1.47949l-2.46094,1.97754L17.21094,18.877l6.89941-5.49316h3.7207Z"/></svg>