<svg id="Layer_1" data-name="Layer 1" xmlns="http://www.w3.org/2000/svg" width="48" height="48" viewBox="0 0 48 48"><defs><style>.cls-1{fill:#ffd546;}</style></defs><title>Risk 2</title><path class="cls-1" d="M40,5a3.00342,3.00342,0,0,1,3,3V40a3.00342,3.00342,0,0,1-3,3H8a3.00342,3.00342,0,0,1-3-3V8A3.00342,3.00342,0,0,1,8,5H40m0-2H8A5,5,0,0,0,3,8V40a5,5,0,0,0,5,5H40a5,5,0,0,0,5-5V8a5,5,0,0,0-5-5Z"/><path class="cls-1" d="M31.61035,34.7998H16.63965V31.65039l5.376-5.43457q2.38768-2.44629,3.12011-3.3916a7.45584,7.45584,0,0,0,1.05469-1.75,4.45663,4.45663,0,0,0,.32227-1.66992,2.43324,2.43324,0,0,0-.71045-1.91895,2.7548,2.7548,0,0,0-1.897-.62988,5.455,5.455,0,0,0-2.417.57129,12.47354,12.47354,0,0,0-2.44629,1.626l-2.46094-2.915a16.0545,16.0545,0,0,1,2.62208-1.9043,9.66806,9.66806,0,0,1,2.2705-.85742,11.686,11.686,0,0,1,2.75391-.29981,8.15414,8.15414,0,0,1,3.54492.73242,5.65553,5.65553,0,0,1,2.3877,2.05079,5.44784,5.44784,0,0,1,.84961,3.01757,7.3834,7.3834,0,0,1-.52,2.77539,10.66,10.66,0,0,1-1.61133,2.65918,39.39189,39.39189,0,0,1-3.84522,3.88184l-2.7539,2.59277v.20508h9.33105Z"/></svg>