<svg id="Layer_1" data-name="Layer 1" xmlns="http://www.w3.org/2000/svg" width="48" height="48" viewBox="0 0 48 48"><defs><style>.cls-1{fill:#ff9126;}</style></defs><title>Risk 3</title><path class="cls-1" d="M40,5a3.00342,3.00342,0,0,1,3,3V40a3.00342,3.00342,0,0,1-3,3H8a3.00342,3.00342,0,0,1-3-3V8A3.00342,3.00342,0,0,1,8,5H40m0-2H8A5,5,0,0,0,3,8V40a5,5,0,0,0,5,5H40a5,5,0,0,0,5-5V8a5,5,0,0,0-5-5Z"/><path class="cls-1" d="M30.77539,18.17383a5.0395,5.0395,0,0,1-1.21582,3.41308,6.30184,6.30184,0,0,1-3.41309,1.9336v.08789a6.82043,6.82043,0,0,1,3.92579,1.57422,4.41224,4.41224,0,0,1,1.333,3.377,5.71871,5.71871,0,0,1-2.24121,4.81152,10.32452,10.32452,0,0,1-6.40136,1.72168,15.54369,15.54369,0,0,1-6.18165-1.15722V30.083a13.97143,13.97143,0,0,0,2.73926,1.02539,11.52693,11.52693,0,0,0,2.959.39551,5.75418,5.75418,0,0,0,3.31054-.76172,2.79551,2.79551,0,0,0,1.06934-2.44629,2.20938,2.20938,0,0,0-1.23047-2.13867,9.10309,9.10309,0,0,0-3.92578-.62989H19.877V22.05566h1.65528a7.68462,7.68462,0,0,0,3.64013-.65234,2.35221,2.35221,0,0,0,1.14991-2.2334q0-2.43164-3.04688-2.43164a6.97321,6.97321,0,0,0-2.146.35156,10.48342,10.48342,0,0,0-2.42431,1.21582l-2.09473-3.12011a11.639,11.639,0,0,1,6.98731-2.10938,9.02219,9.02219,0,0,1,5.25146,1.34766A4.32215,4.32215,0,0,1,30.77539,18.17383Z"/></svg>